<svg width="3426" height="2323" xmlns="http://www.w3.org/2000/svg" xmlns:xlink="http://www.w3.org/1999/xlink" xml:space="preserve" overflow="hidden"><defs><filter id="fx0" x="-10%" y="-10%" width="120%" height="120%" filterUnits="userSpaceOnUse" primitiveUnits="userSpaceOnUse"><feComponentTransfer color-interpolation-filters="sRGB"><feFuncR type="discrete" tableValues="0 0"/><feFuncG type="discrete" tableValues="0 0"/><feFuncB type="discrete" tableValues="0 0"/><feFuncA type="linear" slope="0.631373" intercept="0"/></feComponentTransfer><feGaussianBlur stdDeviation="6.875 6.875"/></filter><filter id="fx1" x="-10%" y="-10%" width="120%" height="120%" filterUnits="userSpaceOnUse" primitiveUnits="userSpaceOnUse"><feComponentTransfer color-interpolation-filters="sRGB"><feFuncR type="discrete" tableValues="0 0"/><feFuncG type="discrete" tableValues="0 0"/><feFuncB type="discrete" tableValues="0 0"/><feFuncA type="linear" slope="0.631373" intercept="0"/></feComponentTransfer><feGaussianBlur stdDeviation="6.875 6.875"/></filter><filter id="fx2" x="-10%" y="-10%" width="120%" height="120%" filterUnits="userSpaceOnUse" primitiveUnits="userSpaceOnUse"><feComponentTransfer color-interpolation-filters="sRGB"><feFuncR type="discrete" tableValues="0 0"/><feFuncG type="discrete" tableValues="0 0"/><feFuncB type="discrete" tableValues="0 0"/><feFuncA type="linear" slope="0.631373" intercept="0"/></feComponentTransfer><feGaussianBlur stdDeviation="6.875 6.875"/></filter><filter id="fx3" x="-10%" y="-10%" width="120%" height="120%" filterUnits="userSpaceOnUse" primitiveUnits="userSpaceOnUse"><feComponentTransfer color-interpolation-filters="sRGB"><feFuncR type="discrete" tableValues="0 0"/><feFuncG type="discrete" tableValues="0 0"/><feFuncB type="discrete" tableValues="0 0"/><feFuncA type="linear" slope="0.631373" intercept="0"/></feComponentTransfer><feGaussianBlur stdDeviation="6.875 6.875"/></filter><filter id="fx4" x="-10%" y="-10%" width="120%" height="120%" filterUnits="userSpaceOnUse" primitiveUnits="userSpaceOnUse"><feComponentTransfer color-interpolation-filters="sRGB"><feFuncR type="discrete" tableValues="0 0"/><feFuncG type="discrete" tableValues="0 0"/><feFuncB type="discrete" tableValues="0 0"/><feFuncA type="linear" slope="0.631373" intercept="0"/></feComponentTransfer><feGaussianBlur stdDeviation="6.875 6.875"/></filter><filter id="fx5" x="-10%" y="-10%" width="120%" height="120%" filterUnits="userSpaceOnUse" primitiveUnits="userSpaceOnUse"><feComponentTransfer color-interpolation-filters="sRGB"><feFuncR type="discrete" tableValues="0 0"/><feFuncG type="discrete" tableValues="0 0"/><feFuncB type="discrete" tableValues="0 0"/><feFuncA type="linear" slope="0.631373" intercept="0"/></feComponentTransfer><feGaussianBlur stdDeviation="6.875 6.875"/></filter><linearGradient x1="2239" y1="79.0001" x2="2239" y2="2400" gradientUnits="userSpaceOnUse" spreadMethod="reflect" id="fill6"><stop offset="0" stop-color="#B1CBE9"/><stop offset="0.5" stop-color="#A3C1E5"/><stop offset="1" stop-color="#92B9E4"/></linearGradient><clipPath id="clip7"><rect x="49" y="45" width="442" height="103"/></clipPath><linearGradient x1="1071" y1="1206" x2="1071" y2="1683" gradientUnits="userSpaceOnUse" spreadMethod="reflect" id="fill8"><stop offset="0" stop-color="#B1CBE9"/><stop offset="0.5" stop-color="#A3C1E5"/><stop offset="1" stop-color="#92B9E4"/></linearGradient><linearGradient x1="1071" y1="1723" x2="1071" y2="2242" gradientUnits="userSpaceOnUse" spreadMethod="reflect" id="fill9"><stop offset="0" stop-color="#B1CBE9"/><stop offset="0.5" stop-color="#A3C1E5"/><stop offset="1" stop-color="#92B9E4"/></linearGradient><clipPath id="clip10"><rect x="41" y="34" width="244" height="92"/></clipPath><clipPath id="clip11"><rect x="41" y="30" width="343" height="107"/></clipPath></defs><g transform="translate(-526 -78)"><path d="M527 465.84C527 252.194 700.194 79.0001 913.84 79.0001L3564.16 79.0001C3777.81 79.0001 3951 252.194 3951 465.84L3951 2013.16C3951 2226.81 3777.81 2400 3564.16 2400L913.84 2400C700.194 2400 527 2226.81 527 2013.16Z" stroke="#5B9BD5" stroke-width="2.29167" stroke-miterlimit="8" fill="url(#fill6)" fill-rule="evenodd"/><text font-family="Calibri,Calibri_MSFontService,sans-serif" font-weight="700" font-size="83" transform="matrix(1 0 0 1 673.589 285)">i.MX RT1180</text><rect x="3551.5" y="1044.5" width="187" height="157" stroke="#2F528F" stroke-width="4.58333" stroke-miterlimit="8" fill="#FFFFFF"/><text fill="#181717" font-family="Calibri,Calibri_MSFontService,sans-serif" font-weight="400" font-size="83" transform="matrix(1 0 0 1 3623.57 1150)">3</text><rect x="2864.5" y="1256.5" width="187" height="156" stroke="#2F528F" stroke-width="4.58333" stroke-miterlimit="8" fill="#FFFFFF"/><text fill="#181717" font-family="Calibri,Calibri_MSFontService,sans-serif" font-weight="400" font-size="83" transform="matrix(1 0 0 1 2936.89 1362)">6</text><path d="M658.5 1212.34C658.5 1094.24 754.239 998.5 872.338 998.5L3629.66 998.5C3747.76 998.5 3843.5 1094.24 3843.5 1212.34L3843.5 2067.66C3843.5 2185.76 3747.76 2281.5 3629.66 2281.5L872.338 2281.5C754.239 2281.5 658.5 2185.76 658.5 2067.66Z" stroke="#FFFFFF" stroke-width="6.875" stroke-miterlimit="8" fill="#5B9BD5" fill-rule="evenodd"/><text fill="#FFFFFF" font-family="Arial,Arial_MSFontService,sans-serif" font-weight="400" font-size="73" transform="matrix(1 0 0 1 753.385 1146)">TSN Init Application CM33</text><path d="M2864.5 1200.84C2864.5 1118.91 2930.91 1052.5 3012.84 1052.5L3606.16 1052.5C3688.09 1052.5 3754.5 1118.91 3754.5 1200.84L3754.5 1884.16C3754.5 1966.09 3688.09 2032.5 3606.16 2032.5L3012.84 2032.5C2930.91 2032.5 2864.5 1966.09 2864.5 1884.16Z" stroke="#507E32" stroke-width="4.58333" stroke-miterlimit="8" fill="#808080" fill-rule="evenodd"/><text fill="#FFFFFF" font-family="Calibri,Calibri_MSFontService,sans-serif" font-weight="700" font-size="83" transform="matrix(1 0 0 1 2940.47 1188)">NETC Switch</text><g filter="url(#fx0)" transform="translate(1397 1191)"><g><path d="M22 109.877C22 61.2748 61.4 21.8749 110.002 21.8749L461.998 21.8749C510.6 21.8749 550 61.2748 550 109.877L550 970.873C550 1019.48 510.6 1058.88 461.998 1058.88L110.002 1058.88C61.4 1058.88 22 1019.48 22 970.873Z" fill="#7F7F7F" fill-rule="evenodd"/></g></g><g clip-path="url(#clip7)" filter="url(#fx1)" transform="translate(1412 1635)"><g><path d="M41.9863-7.4165C41.9863-6.98421 41.9728-6.60596 41.9458-6.28174 41.9188-5.95752 41.8715-5.67383 41.804-5.43066 41.7364-5.1875 41.6486-4.97135 41.5405-4.78223 41.4324-4.5931 41.2433-4.36344 40.9731-4.09326 40.703-3.82308 40.1356-3.41105 39.271-2.85718 38.4064-2.3033 37.3324-1.76294 36.0491-1.23608 34.7657-0.709228 33.2932-0.263428 31.6316 0.101318 29.97 0.466064 28.153 0.648437 26.1807 0.648437 22.7764 0.648437 19.703 0.0810547 16.9607-1.05371 14.2183-2.18848 11.8813-3.86361 9.94946-6.0791 8.01766-8.2946 6.53166-11.0302 5.49145-14.2859 4.45125-17.5416 3.93115-21.2904 3.93115-25.5322 3.93115-29.8822 4.49178-33.7593 5.61304-37.1636 6.73429-40.5679 8.3081-43.4521 10.3345-45.8162 12.3608-48.1803 14.7857-49.9837 17.6091-51.2266 20.4325-52.4694 23.5599-53.0908 26.9912-53.0908 28.5042-53.0908 29.9767-52.949 31.4087-52.6653 32.8407-52.3816 34.1645-52.0236 35.3804-51.5913 36.5962-51.159 37.6769-50.6592 38.6226-50.0918 39.5682-49.5244 40.2234-49.0583 40.5881-48.6936 40.9529-48.3289 41.1893-48.0519 41.2974-47.8628 41.4054-47.6737 41.4932-47.4508 41.5608-47.1941 41.6283-46.9374 41.6824-46.6335 41.7229-46.2822 41.7634-45.931 41.7837-45.5122 41.7837-45.0259 41.7837-44.4855 41.7566-44.0262 41.7023-43.6479 41.6481-43.2697 41.5666-42.9522 41.4579-42.6956 41.3492-42.4389 41.2201-42.2498 41.0707-42.1282 40.9212-42.0066 40.7378-41.9458 40.5204-41.9458 40.1404-41.9458 39.6108-42.2092 38.9316-42.7361 38.2523-43.2629 37.3762-43.8438 36.3033-44.4788 35.2304-45.1137 33.9267-45.6946 32.3921-46.2214 30.8576-46.7483 29.0174-47.0117 26.8715-47.0117 24.5353-47.0117 22.4097-46.5456 20.4948-45.6135 18.5799-44.6814 16.9434-43.3102 15.5853-41.5 14.2272-39.6898 13.1747-37.481 12.4276-34.8738 11.6806-32.2665 11.3071-29.2878 11.3071-25.9375 11.3071-22.6143 11.667-19.676 12.3868-17.1228 13.1066-14.5696 14.1388-12.4351 15.4833-10.7195 16.8279-9.00382 18.478-7.70695 20.4337-6.82886 22.3893-5.95076 24.6031-5.51172 27.0748-5.51172 29.1662-5.51172 30.9928-5.76839 32.5545-6.28174 34.1163-6.79508 35.4472-7.36922 36.5471-8.00415 37.647-8.63908 38.5502-9.21321 39.2564-9.72656 39.9627-10.2399 40.5195-10.4966 40.9269-10.4966 41.1173-10.4966 41.2804-10.4561 41.4161-10.375 41.5518-10.2939 41.6604-10.1386 41.7419-9.90893 41.8234-9.67928 41.8845-9.36182 41.9252-8.95654 41.966-8.55127 41.9863-8.03792 41.9863-7.4165ZM84.2366-19.6558C84.2366-16.6838 83.8449-13.9482 83.0614-11.449 82.2778-8.94979 81.1093-6.79508 79.5557-4.98486 78.0022-3.17464 76.0569-1.76294 73.7198-0.749756 71.3827 0.263428 68.6741 0.770019 65.5941 0.770019 62.595 0.770019 59.981 0.324219 57.752-0.567383 55.523-1.45898 53.6655-2.75586 52.1795-4.45801 50.6935-6.16016 49.5858-8.22705 48.8563-10.6587 48.1268-13.0903 47.762-15.8462 47.762-18.9263 47.762-21.8983 48.147-24.6339 48.9171-27.1331 49.6871-29.6322 50.8489-31.7869 52.4024-33.5972 53.956-35.4074 55.8945-36.8123 58.2181-37.812 60.5417-38.8117 63.257-39.3115 66.3641-39.3115 69.3631-39.3115 71.9771-38.8657 74.2061-37.9741 76.4351-37.0825 78.2926-35.7856 79.7786-34.0835 81.2646-32.3813 82.3791-30.3144 83.1221-27.8828 83.8651-25.4512 84.2366-22.7088 84.2366-19.6558ZM77.3065-19.21C77.3065-21.1823 77.1224-23.0465 76.7543-24.8027 76.3862-26.5589 75.7795-28.099 74.9344-29.4228 74.0892-30.7467 72.9442-31.7937 71.4994-32.5637 70.0545-33.3337 68.2551-33.7187 66.1013-33.7187 64.1112-33.7187 62.4005-33.3675 60.9692-32.665 59.5379-31.9626 58.3588-30.9696 57.4319-29.6863 56.5051-28.4029 55.8167-26.8831 55.3669-25.127 54.9171-23.3708 54.6922-21.4525 54.6922-19.3721 54.6922-17.3727 54.8763-15.495 55.2444-13.7388 55.6125-11.9826 56.2259-10.4493 57.0846-9.13892 57.9433-7.82853 59.095-6.78833 60.5399-6.01831 61.9847-5.24829 63.7841-4.86328 65.9379-4.86328 67.901-4.86328 69.6049-5.21452 71.0498-5.91699 72.4946-6.61947 73.6804-7.60563 74.6073-8.87549 75.5341-10.1453 76.2157-11.6584 76.652-13.4145 77.0883-15.1707 77.3065-17.1025 77.3065-19.21ZM115.174-35.0967C115.174-34.5023 115.161-34.0024 115.134-33.5972 115.107-33.1919 115.053-32.8744 114.972-32.6448 114.891-32.4151 114.789-32.2395 114.668-32.1179 114.546-31.9963 114.377-31.9355 114.161-31.9355 113.945-31.9355 113.682-31.9963 113.371-32.1179 113.06-32.2395 112.709-32.3611 112.317-32.4827 111.925-32.6042 111.486-32.7191 111-32.8271 110.514-32.9352 109.987-32.9893 109.419-32.9893 108.744-32.9893 108.082-32.8542 107.434-32.584 106.785-32.3138 106.103-31.868 105.387-31.2466 104.671-30.6252 103.921-29.8011 103.138-28.7744 102.354-27.7477 101.49-26.4914 100.544-25.0054L100.544-1.01318C100.544-0.797038 100.49-0.614665 100.382-0.466064 100.274-0.317464 100.098-0.189128 99.855-0.0810547 99.6118 0.0270182 99.2741 0.108073 98.8418 0.162109 98.4095 0.216146 97.8556 0.243164 97.1802 0.243164 96.5317 0.243164 95.9914 0.216146 95.5591 0.162109 95.1268 0.108073 94.7823 0.0270182 94.5256-0.0810547 94.269-0.189128 94.0933-0.317464 93.9988-0.466064 93.9042-0.614665 93.8569-0.797038 93.8569-1.01318L93.8569-37.4878C93.8569-37.7039 93.8975-37.8863 93.9785-38.0349 94.0596-38.1835 94.2217-38.3186 94.4648-38.4402 94.708-38.5618 95.0187-38.6428 95.397-38.6833 95.7752-38.7239 96.2751-38.7441 96.8965-38.7441 97.4909-38.7441 97.984-38.7239 98.3757-38.6833 98.7675-38.6428 99.0714-38.5618 99.2876-38.4402 99.5037-38.3186 99.6591-38.1835 99.7537-38.0349 99.8482-37.8863 99.8955-37.7039 99.8955-37.4878L99.8955-32.1787C100.895-33.6377 101.834-34.8265 102.712-35.7451 103.59-36.6637 104.421-37.3865 105.205-37.9133 105.988-38.4402 106.765-38.8049 107.535-39.0076 108.305-39.2102 109.082-39.3115 109.865-39.3115 110.216-39.3115 110.615-39.2913 111.061-39.2507 111.507-39.2102 111.973-39.1359 112.459-39.0278 112.945-38.9198 113.384-38.7982 113.776-38.6631 114.168-38.528 114.445-38.3929 114.607-38.2578 114.769-38.1227 114.877-37.9944 114.931-37.8728 114.985-37.7512 115.032-37.5959 115.073-37.4067 115.114-37.2176 115.141-36.9407 115.154-36.5759 115.168-36.2112 115.174-35.7181 115.174-35.0967ZM141.47-3.68799C141.47-2.90446 141.416-2.28304 141.307-1.82373 141.199-1.36442 141.037-1.02669 140.821-0.810547 140.605-0.594401 140.281-0.391764 139.848-0.202637 139.416-0.0135091 138.923 0.141846 138.369 0.263428 137.815 0.38501 137.228 0.486328 136.606 0.567383 135.985 0.648437 135.363 0.688965 134.742 0.688965 132.851 0.688965 131.23 0.439046 129.879-0.060791 128.528-0.560628 127.42-1.31714 126.555-2.33032 125.691-3.34351 125.063-4.62687 124.671-6.18042 124.279-7.73397 124.083-9.56445 124.083-11.6719L124.083-32.9893 118.977-32.9893C118.572-32.9893 118.247-33.2054 118.004-33.6377 117.761-34.07 117.639-34.7725 117.639-35.7451 117.639-36.2585 117.673-36.6908 117.741-37.042 117.808-37.3932 117.896-37.6837 118.004-37.9133 118.112-38.143 118.254-38.3051 118.43-38.3997 118.605-38.4942 118.801-38.5415 119.017-38.5415L124.083-38.5415 124.083-47.2144C124.083-47.4035 124.131-47.5791 124.225-47.7412 124.32-47.9033 124.495-48.0452 124.752-48.1667 125.009-48.2883 125.353-48.3761 125.785-48.4302 126.218-48.4842 126.758-48.5112 127.407-48.5112 128.082-48.5112 128.636-48.4842 129.068-48.4302 129.5-48.3761 129.838-48.2883 130.081-48.1667 130.325-48.0452 130.5-47.9033 130.608-47.7412 130.716-47.5791 130.77-47.4035 130.77-47.2144L130.77-38.5415 140.132-38.5415C140.348-38.5415 140.537-38.4942 140.7-38.3997 140.862-38.3051 141.003-38.143 141.125-37.9133 141.247-37.6837 141.334-37.3932 141.389-37.042 141.443-36.6908 141.47-36.2585 141.47-35.7451 141.47-34.7725 141.348-34.07 141.105-33.6377 140.862-33.2054 140.537-32.9893 140.132-32.9893L130.77-32.9893 130.77-12.6445C130.77-10.1318 131.142-8.2338 131.885-6.95044 132.628-5.66707 133.958-5.02539 135.877-5.02539 136.498-5.02539 137.052-5.08618 137.538-5.20776 138.025-5.32934 138.457-5.45768 138.835-5.59277 139.214-5.72786 139.538-5.8562 139.808-5.97778 140.078-6.09936 140.321-6.16016 140.537-6.16016 140.673-6.16016 140.801-6.12638 140.922-6.05884 141.044-5.99129 141.139-5.86296 141.206-5.67383 141.274-5.4847 141.334-5.22803 141.389-4.90381 141.443-4.57959 141.47-4.17432 141.47-3.68799ZM180.234-20.8311C180.234-19.7773 179.969-19.0276 179.44-18.5818 178.911-18.136 178.307-17.9131 177.628-17.9131L153.608-17.9131C153.608-15.8867 153.811-14.063 154.218-12.4419 154.625-10.8208 155.304-9.42936 156.254-8.26758 157.205-7.10579 158.44-6.21419 159.961-5.59277 161.481-4.97135 163.341-4.66064 165.54-4.66064 167.277-4.66064 168.825-4.80249 170.182-5.08618 171.54-5.36987 172.714-5.68734 173.705-6.03857 174.696-6.38981 175.511-6.70727 176.149-6.99097 176.787-7.27466 177.269-7.4165 177.595-7.4165 177.785-7.4165 177.954-7.36922 178.103-7.27466 178.253-7.18009 178.368-7.03825 178.45-6.84912 178.531-6.65999 178.592-6.39657 178.633-6.05884 178.674-5.72111 178.694-5.30908 178.694-4.82275 178.694-4.47152 178.68-4.16756 178.653-3.91089 178.626-3.65422 178.593-3.42456 178.552-3.22192 178.512-3.01929 178.444-2.83691 178.349-2.6748 178.255-2.5127 178.133-2.35734 177.985-2.20874 177.836-2.06014 177.397-1.81698 176.668-1.47925 175.938-1.14152 174.992-0.810547 173.831-0.486328 172.669-0.162109 171.325 0.128337 169.798 0.38501 168.272 0.641683 166.644 0.770019 164.915 0.770019 161.916 0.770019 159.288 0.351237 157.032-0.486328 154.776-1.32389 152.878-2.56673 151.338-4.21484 149.798-5.86296 148.636-7.92985 147.853-10.4155 147.069-12.9012 146.677-15.7922 146.677-19.0884 146.677-22.2225 147.083-25.0391 147.893-27.5383 148.704-30.0375 149.872-32.1584 151.399-33.9011 152.925-35.6438 154.769-36.9812 156.931-37.9133 159.092-38.8455 161.51-39.3115 164.185-39.3115 167.049-39.3115 169.488-38.8522 171.5-37.9336 173.513-37.015 175.168-35.7789 176.465-34.2253 177.762-32.6718 178.714-30.8481 179.322-28.7541 179.93-26.6602 180.234-24.4245 180.234-22.0469ZM173.506-22.8169C173.588-26.3293 172.806-29.0851 171.162-31.0845 169.517-33.0838 167.078-34.0835 163.843-34.0835 162.184-34.0835 160.73-33.7728 159.48-33.1514 158.229-32.5299 157.182-31.7059 156.34-30.6792 155.497-29.6525 154.844-28.4569 154.382-27.0925 153.92-25.7281 153.662-24.3029 153.608-22.8169ZM216.761-1.7832C216.977-1.40495 217.085-1.08748 217.085-0.83081 217.085-0.574137 216.957-0.364746 216.7-0.202637 216.444-0.0405273 216.052 0.0743001 215.525 0.141846 214.998 0.209391 214.316 0.243164 213.478 0.243164 212.668 0.243164 212.026 0.2229 211.553 0.182373 211.081 0.141846 210.702 0.0743001 210.419-0.0202637 210.135-0.114827 209.919-0.236409 209.77-0.38501 209.622-0.53361 209.493-0.702474 209.385-0.891602L200.631-15.3599 191.918-0.891602C191.81-0.702474 191.681-0.53361 191.533-0.38501 191.384-0.236409 191.168-0.114827 190.884-0.0202637 190.601 0.0743001 190.229 0.141846 189.77 0.182373 189.311 0.2229 188.703 0.243164 187.946 0.243164 187.163 0.243164 186.521 0.209391 186.021 0.141846 185.521 0.0743001 185.157-0.0405273 184.927-0.202637 184.697-0.364746 184.589-0.574137 184.603-0.83081 184.616-1.08748 184.745-1.40495 184.988-1.7832L196.335-19.5747 185.596-36.7178C185.379-37.096 185.265-37.4135 185.251-37.6702 185.238-37.9268 185.359-38.143 185.616-38.3186 185.873-38.4942 186.264-38.609 186.791-38.6631 187.318-38.7171 188.014-38.7441 188.878-38.7441 189.662-38.7441 190.29-38.7239 190.763-38.6833 191.236-38.6428 191.607-38.582 191.877-38.501 192.148-38.4199 192.35-38.3118 192.485-38.1768 192.62-38.0417 192.742-37.8796 192.85-37.6904L201.158-24.1138 209.588-37.6904C209.696-37.8525 209.817-38.0011 209.953-38.1362 210.088-38.2713 210.27-38.3861 210.5-38.4807 210.729-38.5753 211.054-38.6428 211.472-38.6833 211.891-38.7239 212.465-38.7441 213.195-38.7441 213.978-38.7441 214.62-38.7171 215.12-38.6631 215.62-38.609 215.991-38.5077 216.234-38.3591 216.477-38.2105 216.586-38.0011 216.559-37.731 216.531-37.4608 216.396-37.123 216.153-36.7178L205.495-19.7773Z" fill="#FFFFFF" transform="matrix(1 0 0 1 71.7719 124)"/><path d="M22.6143-20.4663C22.6143-19.4126 22.4927-18.6831 22.2495-18.2778 22.0063-17.8726 21.6551-17.6699 21.1958-17.6699L4.25537-17.6699C3.76904-17.6699 3.4043-17.8793 3.16113-18.2981 2.91797-18.7169 2.79639-19.4396 2.79639-20.4663 2.79639-21.493 2.91797-22.209 3.16113-22.6143 3.4043-23.0195 3.76904-23.2222 4.25537-23.2222L21.1958-23.2222C21.4119-23.2222 21.6078-23.1816 21.7834-23.1006 21.9591-23.0195 22.1077-22.8642 22.2292-22.6345 22.3508-22.4049 22.4454-22.1144 22.5129-21.7632 22.5805-21.4119 22.6143-20.9797 22.6143-20.4663Z" fill="#FFFFFF" transform="matrix(1 0 0 1 290.214 124)"/><path d="M63.9927-1.05371C63.9927-0.837565 63.937-0.648437 63.8258-0.486328 63.7146-0.324219 63.5197-0.195882 63.2413-0.101318 62.9629-0.00675456 62.6081 0.0743001 62.1769 0.141846 61.7456 0.209391 61.1821 0.243164 60.4864 0.243164 59.8464 0.243164 59.2969 0.209391 58.8378 0.141846 58.3787 0.0743001 58.0169-0.00675456 57.7524-0.101318 57.4879-0.195882 57.3001-0.324219 57.1888-0.486328 57.0776-0.648437 57.022-0.837565 57.022-1.05371L57.022-46.728 56.9409-46.728 38.4604-0.851074C38.3794-0.661947 38.2646-0.499837 38.116-0.364746 37.9674-0.229655 37.7512-0.114827 37.4675-0.0202637 37.1838 0.0743001 36.8461 0.141846 36.4543 0.182373 36.0626 0.2229 35.5965 0.243164 35.0561 0.243164 34.4888 0.243164 34.0024 0.216146 33.5972 0.162109 33.1919 0.108073 32.8542 0.0337728 32.584-0.060791 32.3138-0.155355 32.1044-0.270182 31.9558-0.405273 31.8072-0.540365 31.7059-0.688965 31.6519-0.851074L13.9819-46.728 13.9414-46.728 13.9414-1.05371C13.9414-0.837565 13.8858-0.648437 13.7745-0.486328 13.6633-0.324219 13.4685-0.195882 13.1901-0.101318 12.9117-0.00675456 12.5499 0.0743001 12.1047 0.141846 11.6595 0.209391 11.0891 0.243164 10.3934 0.243164 9.72551 0.243164 9.16899 0.209391 8.72383 0.141846 8.27866 0.0743001 7.92383-0.00675456 7.65935-0.101318 7.39487-0.195882 7.21397-0.324219 7.11666-0.486328 7.01936-0.648437 6.9707-0.837565 6.9707-1.05371L6.9707-49.2812C6.9707-50.416 7.27244-51.2266 7.87592-51.7129 8.47939-52.1992 9.15158-52.4424 9.89247-52.4424L14.1725-52.4424C15.0502-52.4424 15.8183-52.3613 16.4769-52.1992 17.1355-52.0371 17.7116-51.7804 18.2053-51.4292 18.699-51.078 19.1105-50.6322 19.4398-50.0918 19.7691-49.5514 20.0572-48.9165 20.3042-48.187L35.2993-10.2129 35.5019-10.2129 51.105-48.0654C51.4068-48.876 51.7362-49.5649 52.0931-50.1323 52.4501-50.6997 52.8413-51.1523 53.2669-51.49 53.6924-51.8277 54.1658-52.0709 54.6872-52.2195 55.2086-52.3681 55.8125-52.4424 56.4989-52.4424L60.9867-52.4424C61.3987-52.4424 61.7899-52.3816 62.1604-52.26 62.5308-52.1384 62.8465-51.9493 63.1074-51.6926 63.3683-51.436 63.5811-51.1117 63.7457-50.72 63.9103-50.3282 63.9927-49.8486 63.9927-49.2812ZM107.511-14.9951C107.511-12.5905 107.092-10.4223 106.254-8.49048 105.417-6.55867 104.214-4.90381 102.647-3.52588 101.08-2.14795 99.1486-1.08748 96.852-0.344482 94.5555 0.398519 91.9617 0.770019 89.0708 0.770019 87.3146 0.770019 85.6732 0.628174 84.1467 0.344482 82.6202 0.060791 81.2625-0.276937 80.0737-0.668701 78.8849-1.06047 77.8988-1.46574 77.1152-1.88452 76.3317-2.3033 75.8386-2.60726 75.636-2.79639 75.4333-2.98551 75.278-3.17464 75.1699-3.36377 75.0618-3.5529 74.9673-3.78255 74.8862-4.05273 74.8052-4.32292 74.7444-4.65389 74.7038-5.04565 74.6633-5.43742 74.6431-5.91699 74.6431-6.48437 74.6431-7.45703 74.74-8.13249 74.934-8.51074 75.128-8.889 75.4053-9.07812 75.7658-9.07812 76.0153-9.07812 76.5072-8.86198 77.2416-8.42969 77.9759-7.99739 78.9183-7.53133 80.0687-7.03149 81.219-6.53166 82.5633-6.06559 84.1014-5.6333 85.6396-5.20101 87.3511-4.98486 89.2361-4.98486 91.0653-4.98486 92.6728-5.21452 94.0585-5.67383 95.4442-6.13314 96.6084-6.78157 97.5508-7.61914 98.4933-8.45671 99.2001-9.44963 99.6712-10.5979 100.142-11.7462 100.378-12.9958 100.378-14.3467 100.378-15.8327 100.078-17.1701 99.4781-18.3589 98.8782-19.5477 97.9993-20.5744 96.8413-21.439 95.6833-22.3035 94.2602-22.9655 92.572-23.4248 90.8838-23.8841 88.9652-24.1138 86.8165-24.1138L81.6682-24.1138C81.4449-24.1138 81.2286-24.161 81.0195-24.2556 80.8103-24.3502 80.629-24.5055 80.4755-24.7217 80.3221-24.9378 80.1965-25.2215 80.0987-25.5728 80.001-25.924 79.9521-26.3833 79.9521-26.9507 79.9521-27.464 79.9927-27.8896 80.0737-28.2273 80.1548-28.565 80.2696-28.8352 80.4182-29.0378 80.5668-29.2405 80.7357-29.3891 80.9248-29.4836 81.1139-29.5782 81.3301-29.6255 81.5732-29.6255L86.1528-29.6255C87.936-29.6255 89.5368-29.8551 90.9553-30.3145 92.3738-30.7738 93.5761-31.4357 94.5622-32.3003 95.5484-33.1649 96.3049-34.1983 96.8318-35.4006 97.3586-36.6029 97.6221-37.9471 97.6221-39.4331 97.6221-40.5138 97.4464-41.5473 97.0952-42.5334 96.744-43.5196 96.2171-44.3774 95.5146-45.1069 94.8122-45.8364 93.9138-46.4106 92.8196-46.8293 91.7253-47.2481 90.4622-47.4575 89.0303-47.4575 87.4632-47.4575 86.0245-47.2211 84.7141-46.7483 83.4037-46.2755 82.2352-45.7689 81.2085-45.2285 80.1818-44.6881 79.3307-44.1816 78.6553-43.7087 77.9798-43.2359 77.507-42.9995 77.2368-42.9995 77.0477-42.9995 76.8788-43.0333 76.7302-43.1008 76.5816-43.1684 76.46-43.3035 76.3655-43.5061 76.2709-43.7087 76.2034-43.9924 76.1628-44.3572 76.1223-44.7219 76.102-45.2015 76.102-45.7959 76.102-46.2012 76.1155-46.5592 76.1426-46.8699 76.1696-47.1806 76.2236-47.4508 76.3047-47.6804 76.3857-47.9101 76.4803-48.1195 76.5884-48.3086 76.6964-48.4977 76.8788-48.7206 77.1355-48.9773 77.3922-49.234 77.9123-49.6055 78.6958-50.0918 79.4793-50.5781 80.4452-51.0577 81.5935-51.5305 82.7418-52.0033 84.0657-52.4018 85.5652-52.7261 87.0647-53.0503 88.679-53.2124 90.4082-53.2124 92.8398-53.2124 94.9743-52.9017 96.8115-52.2803 98.6488-51.6588 100.182-50.7808 101.411-49.646 102.641-48.5112 103.559-47.1536 104.167-45.573 104.775-43.9924 105.079-42.243 105.079-40.3247 105.079-38.6766 104.863-37.1433 104.431-35.7248 103.998-34.3064 103.363-33.05 102.526-31.9558 101.688-30.8616 100.662-29.9294 99.4458-29.1594 98.23-28.3894 96.825-27.8558 95.2309-27.5586L95.2309-27.4775C97.0412-27.2884 98.696-26.8359 100.196-26.1199 101.695-25.4039 102.985-24.5055 104.066-23.4248 105.147-22.3441 105.991-21.081 106.599-19.6355 107.207-18.19 107.511-16.6432 107.511-14.9951ZM149.334-14.9951C149.334-12.5905 148.915-10.4223 148.077-8.49048 147.24-6.55867 146.037-4.90381 144.47-3.52588 142.903-2.14795 140.971-1.08748 138.675-0.344482 136.378 0.398519 133.785 0.770019 130.894 0.770019 129.138 0.770019 127.496 0.628174 125.97 0.344482 124.443 0.060791 123.085-0.276937 121.897-0.668701 120.708-1.06047 119.722-1.46574 118.938-1.88452 118.155-2.3033 117.662-2.60726 117.459-2.79639 117.256-2.98551 117.101-3.17464 116.993-3.36377 116.885-3.5529 116.79-3.78255 116.709-4.05273 116.628-4.32292 116.567-4.65389 116.527-5.04565 116.486-5.43742 116.466-5.91699 116.466-6.48437 116.466-7.45703 116.563-8.13249 116.757-8.51074 116.951-8.889 117.228-9.07812 117.589-9.07812 117.838-9.07812 118.33-8.86198 119.064-8.42969 119.799-7.99739 120.741-7.53133 121.892-7.03149 123.042-6.53166 124.386-6.06559 125.924-5.6333 127.462-5.20101 129.174-4.98486 131.059-4.98486 132.888-4.98486 134.496-5.21452 135.881-5.67383 137.267-6.13314 138.431-6.78157 139.374-7.61914 140.316-8.45671 141.023-9.44963 141.494-10.5979 141.965-11.7462 142.201-12.9958 142.201-14.3467 142.201-15.8327 141.901-17.1701 141.301-18.3589 140.701-19.5477 139.822-20.5744 138.664-21.439 137.506-22.3035 136.083-22.9655 134.395-23.4248 132.707-23.8841 130.788-24.1138 128.639-24.1138L123.491-24.1138C123.268-24.1138 123.052-24.161 122.842-24.2556 122.633-24.3502 122.452-24.5055 122.298-24.7217 122.145-24.9378 122.019-25.2215 121.922-25.5728 121.824-25.924 121.775-26.3833 121.775-26.9507 121.775-27.464 121.816-27.8896 121.897-28.2273 121.978-28.565 122.093-28.8352 122.241-29.0378 122.39-29.2405 122.559-29.3891 122.748-29.4836 122.937-29.5782 123.153-29.6255 123.396-29.6255L127.976-29.6255C129.759-29.6255 131.36-29.8551 132.778-30.3145 134.197-30.7738 135.399-31.4357 136.385-32.3003 137.371-33.1649 138.128-34.1983 138.655-35.4006 139.182-36.6029 139.445-37.9471 139.445-39.4331 139.445-40.5138 139.269-41.5473 138.918-42.5334 138.567-43.5196 138.04-44.3774 137.338-45.1069 136.635-45.8364 135.737-46.4106 134.642-46.8293 133.548-47.2481 132.285-47.4575 130.853-47.4575 129.286-47.4575 127.847-47.2211 126.537-46.7483 125.227-46.2755 124.058-45.7689 123.031-45.2285 122.005-44.6881 121.154-44.1816 120.478-43.7087 119.803-43.2359 119.33-42.9995 119.06-42.9995 118.871-42.9995 118.702-43.0333 118.553-43.1008 118.405-43.1684 118.283-43.3035 118.188-43.5061 118.094-43.7087 118.026-43.9924 117.986-44.3572 117.945-44.7219 117.925-45.2015 117.925-45.7959 117.925-46.2012 117.938-46.5592 117.965-46.8699 117.993-47.1806 118.047-47.4508 118.128-47.6804 118.209-47.9101 118.303-48.1195 118.411-48.3086 118.519-48.4977 118.702-48.7206 118.958-48.9773 119.215-49.234 119.735-49.6055 120.519-50.0918 121.302-50.5781 122.268-51.0577 123.416-51.5305 124.565-52.0033 125.889-52.4018 127.388-52.7261 128.888-53.0503 130.502-53.2124 132.231-53.2124 134.663-53.2124 136.797-52.9017 138.634-52.2803 140.472-51.6588 142.005-50.7808 143.234-49.646 144.464-48.5112 145.382-47.1536 145.99-45.573 146.598-43.9924 146.902-42.243 146.902-40.3247 146.902-38.6766 146.686-37.1433 146.254-35.7248 145.821-34.3064 145.186-33.05 144.349-31.9558 143.511-30.8616 142.485-29.9294 141.269-29.1594 140.053-28.3894 138.648-27.8558 137.054-27.5586L137.054-27.4775C138.864-27.2884 140.519-26.8359 142.018-26.1199 143.518-25.4039 144.808-24.5055 145.889-23.4248 146.97-22.3441 147.814-21.081 148.422-19.6355 149.03-18.19 149.334-16.6432 149.334-14.9951Z" fill="#FFFFFF" transform="matrix(1 0 0 1 315.422 124)"/></g></g><path d="M1419 1294C1419 1245.4 1458.4 1206 1507 1206L1859 1206C1907.6 1206 1947 1245.4 1947 1294L1947 2155C1947 2203.6 1907.6 2243 1859 2243L1507 2243C1458.4 2243 1419 2203.6 1419 2155Z" fill="#7F7F7F" fill-rule="evenodd"/><text fill="#FFFFFF" font-family="Calibri,Calibri_MSFontService,sans-serif" font-weight="400" font-size="83" transform="matrix(1 0 0 1 1483.77 1752)">Cortex</text><text fill="#FFFFFF" font-family="Calibri,Calibri_MSFontService,sans-serif" font-weight="400" font-size="83" transform="matrix(1 0 0 1 1702.21 1752)">-</text><text fill="#FFFFFF" font-family="Calibri,Calibri_MSFontService,sans-serif" font-weight="400" font-size="83" transform="matrix(1 0 0 1 1727.42 1752)">M33</text><path d="M807 1285.5C807 1241.59 842.594 1206 886.502 1206L1255.5 1206C1299.41 1206 1335 1241.59 1335 1285.5L1335 1603.5C1335 1647.41 1299.41 1683 1255.5 1683L886.502 1683C842.594 1683 807 1647.41 807 1603.5Z" stroke="#5B9BD5" stroke-width="2.29167" stroke-miterlimit="8" fill="url(#fill8)" fill-rule="evenodd"/><text font-family="Calibri,Calibri_MSFontService,sans-serif" font-weight="400" font-size="83" transform="matrix(1 0 0 1 955.901 1423)">Zephyr</text><text font-family="Calibri,Calibri_MSFontService,sans-serif" font-weight="400" font-size="83" transform="matrix(1 0 0 1 875.463 1522)">Networking</text><path d="M807 1809.5C807 1761.73 845.728 1723 893.502 1723L1248.5 1723C1296.27 1723 1335 1761.73 1335 1809.5L1335 2155.5C1335 2203.27 1296.27 2242 1248.5 2242L893.502 2242C845.728 2242 807 2203.27 807 2155.5Z" stroke="#5B9BD5" stroke-width="2.29167" stroke-miterlimit="8" fill="url(#fill9)" fill-rule="evenodd"/><text font-family="Calibri,Calibri_MSFontService,sans-serif" font-weight="400" font-size="83" transform="matrix(1 0 0 1 888.308 1960)">TSN Bridge </text><text font-family="Calibri,Calibri_MSFontService,sans-serif" font-weight="400" font-size="83" transform="matrix(1 0 0 1 1034.15 2059)">UI</text><rect x="3494.5" y="1146.5" width="187" height="157" stroke="#000000" stroke-width="4.58333" stroke-miterlimit="8" fill="#FFFFFF"/><text fill="#181717" font-family="Calibri,Calibri_MSFontService,sans-serif" font-weight="400" font-size="83" transform="matrix(1 0 0 1 3566.49 1252)">2</text><rect x="3494.5" y="1372.5" width="187" height="156" stroke="#000000" stroke-width="4.58333" stroke-miterlimit="8" fill="#FFFFFF"/><text fill="#181717" font-family="Calibri,Calibri_MSFontService,sans-serif" font-weight="400" font-size="83" transform="matrix(1 0 0 1 3567.05 1477)">3</text><rect x="3499.5" y="1605.5" width="187" height="157" stroke="#000000" stroke-width="4.58333" stroke-miterlimit="8" fill="#FFFFFF"/><text fill="#181717" font-family="Calibri,Calibri_MSFontService,sans-serif" font-weight="400" font-size="83" transform="matrix(1 0 0 1 3571.82 1711)">4</text><rect x="3494.5" y="1833.5" width="187" height="157" stroke="#000000" stroke-width="4.58333" stroke-miterlimit="8" fill="#FFFFFF"/><text fill="#181717" font-family="Calibri,Calibri_MSFontService,sans-serif" font-weight="400" font-size="83" transform="matrix(1 0 0 1 3567.05 1939)">5</text><rect x="2926.5" y="1444.5" width="187" height="156" stroke="#000000" stroke-width="4.58333" stroke-miterlimit="8" fill="#FFFFFF"/><text fill="#181717" font-family="Calibri,Calibri_MSFontService,sans-serif" font-weight="400" font-size="83" transform="matrix(1 0 0 1 2998.24 1549)">6</text><text fill="#FFFFFF" font-family="Calibri,Calibri_MSFontService,sans-serif" font-weight="400" font-size="50" transform="matrix(1 0 0 1 3516.12 1355)">ENET1</text><text fill="#FFFFFF" font-family="Calibri,Calibri_MSFontService,sans-serif" font-weight="400" font-size="50" transform="matrix(1 0 0 1 3511.32 1599)">ENET2</text><text fill="#FFFFFF" font-family="Calibri,Calibri_MSFontService,sans-serif" font-weight="400" font-size="50" transform="matrix(1 0 0 1 3526.02 1820)">ENET3</text><text fill="#FFFFFF" font-family="Calibri,Calibri_MSFontService,sans-serif" font-weight="400" font-size="50" transform="matrix(1 0 0 1 3510.34 1115)">ENET0</text><rect x="3489.5" y="2080.5" width="187" height="157" stroke="#2F528F" stroke-width="4.58333" stroke-miterlimit="8" fill="#FFFFFF"/><text fill="#FFFFFF" font-family="Calibri,Calibri_MSFontService,sans-serif" font-weight="400" font-size="50" transform="matrix(1 0 0 1 3520.59 2067)">ENET4</text><g filter="url(#fx2)" transform="translate(1998 2019)"><g><path d="M21.9999 56.5425C21.9999 37.3962 37.521 21.875 56.6672 21.875L627.333 21.875C646.479 21.875 662 37.3962 662 56.5425L662 195.207C662 214.354 646.479 229.875 627.333 229.875L56.6672 229.875C37.521 229.875 21.9999 214.354 21.9999 195.207Z" fill="#7F7F7F" fill-rule="evenodd"/></g></g><g clip-path="url(#clip10)" filter="url(#fx3)" transform="translate(2002 2065)"><g><path d="M27.875-2.21875C27.875-1.84375 27.8542-1.51562 27.8125-1.23437 27.7708-0.953125 27.6979-0.71875 27.5937-0.53125 27.4896-0.34375 27.3698-0.208333 27.2344-0.125 27.099-0.0416667 26.9479 0 26.7812 0L7.375 0C6.89583 0 6.44271-0.161458 6.01562-0.484375 5.58854-0.807292 5.375-1.375 5.375-2.1875L5.375-38.25C5.375-39.0625 5.58854-39.6302 6.01562-39.9531 6.44271-40.276 6.89583-40.4375 7.375-40.4375L26.5625-40.4375C26.7292-40.4375 26.8802-40.3958 27.0156-40.3125 27.151-40.2292 27.2604-40.0937 27.3437-39.9062 27.4271-39.7187 27.4948-39.4844 27.5469-39.2031 27.599-38.9219 27.625-38.5729 27.625-38.1562 27.625-37.7812 27.599-37.4531 27.5469-37.1719 27.4948-36.8906 27.4271-36.6615 27.3437-36.4844 27.2604-36.3073 27.151-36.1771 27.0156-36.0937 26.8802-36.0104 26.7292-35.9687 26.5625-35.9687L10.75-35.9687 10.75-23.2812 24.3125-23.2812C24.4792-23.2812 24.6302-23.2344 24.7656-23.1406 24.901-23.0469 25.0156-22.9167 25.1094-22.75 25.2031-22.5833 25.2708-22.3542 25.3125-22.0625 25.3542-21.7708 25.375-21.4271 25.375-21.0312 25.375-20.6562 25.3542-20.3333 25.3125-20.0625 25.2708-19.7917 25.2031-19.5729 25.1094-19.4062 25.0156-19.2396 24.901-19.1198 24.7656-19.0469 24.6302-18.974 24.4792-18.9375 24.3125-18.9375L10.75-18.9375 10.75-4.46875 26.7812-4.46875C26.9479-4.46875 27.099-4.42708 27.2344-4.34375 27.3698-4.26042 27.4896-4.13021 27.5937-3.95312 27.6979-3.77604 27.7708-3.54687 27.8125-3.26562 27.8542-2.98437 27.875-2.63542 27.875-2.21875ZM67.4479-2.21875C67.4479-1.80208 67.3779-1.44792 67.238-1.15625 67.098-0.864583 66.9149-0.625 66.6886-0.4375 66.4624-0.25 66.2092-0.114583 65.9291-0.03125 65.649 0.0520833 65.3688 0.09375 65.0885 0.09375L63.3112 0.09375C62.751 0.09375 62.2607 0.0364583 61.8405-0.078125 61.4202-0.192708 61.0216-0.401042 60.6447-0.703125 60.2677-1.00521 59.8907-1.41667 59.5136-1.9375 59.1365-2.45833 58.7363-3.125 58.3131-3.9375L45.9772-26.9375C45.3324-28.125 44.6824-29.3698 44.0273-30.6719 43.3721-31.974 42.7624-33.2396 42.1979-34.4687L42.1354-34.4687C42.1771-32.9687 42.2083-31.4375 42.2292-29.875 42.25-28.3125 42.2604-26.7604 42.2604-25.2187L42.2604-0.8125C42.2604-0.666667 42.2165-0.526042 42.1286-0.390625 42.0407-0.255208 41.8923-0.151042 41.6835-0.078125 41.4747-0.00520833 41.1999 0.0572917 40.859 0.109375 40.5182 0.161458 40.084 0.1875 39.5563 0.1875 39.0286 0.1875 38.5945 0.161458 38.2538 0.109375 37.9132 0.0572917 37.6439-0.00520833 37.446-0.078125 37.248-0.151042 37.1051-0.255208 37.0173-0.390625 36.9294-0.526042 36.8854-0.666667 36.8854-0.8125L36.8854-38.125C36.8854-38.9583 37.122-39.5521 37.5951-39.9062 38.0683-40.2604 38.5843-40.4375 39.1432-40.4375L41.7882-40.4375C42.4116-40.4375 42.933-40.3854 43.3525-40.2812 43.7719-40.1771 44.1482-40.0052 44.4814-39.7656 44.8145-39.526 45.137-39.1927 45.4489-38.7656 45.7607-38.3385 46.0879-37.8021 46.4303-37.1562L55.9137-19.4062C56.4977-18.3229 57.0615-17.2656 57.6051-16.2344 58.1488-15.2031 58.6723-14.1875 59.1757-13.1875 59.6791-12.1875 60.1774-11.2031 60.6706-10.2344 61.1637-9.26562 61.652-8.29167 62.1354-7.3125L62.1667-7.3125C62.125-8.95833 62.099-10.6719 62.0885-12.4531 62.0781-14.2344 62.0729-15.9479 62.0729-17.5937L62.0729-39.5312C62.0729-39.6771 62.1169-39.8125 62.2048-39.9375 62.2926-40.0625 62.441-40.1719 62.6498-40.2656 62.8586-40.3594 63.1335-40.4271 63.4743-40.4687 63.8151-40.5104 64.2603-40.5312 64.8097-40.5312 65.2935-40.5312 65.7112-40.5104 66.0629-40.4687 66.4146-40.4271 66.6894-40.3594 66.8874-40.2656 67.0853-40.1719 67.2282-40.0625 67.3161-39.9375 67.404-39.8125 67.4479-39.6771 67.4479-39.5312ZM100.635-2.21875C100.635-1.84375 100.615-1.51562 100.573-1.23437 100.531-0.953125 100.458-0.71875 100.354-0.53125 100.25-0.34375 100.13-0.208333 99.9948-0.125 99.8594-0.0416667 99.7083 0 99.5417 0L80.1354 0C79.6562 0 79.2031-0.161458 78.776-0.484375 78.349-0.807292 78.1354-1.375 78.1354-2.1875L78.1354-38.25C78.1354-39.0625 78.349-39.6302 78.776-39.9531 79.2031-40.276 79.6562-40.4375 80.1354-40.4375L99.3229-40.4375C99.4896-40.4375 99.6406-40.3958 99.776-40.3125 99.9115-40.2292 100.021-40.0937 100.104-39.9062 100.187-39.7187 100.255-39.4844 100.307-39.2031 100.359-38.9219 100.385-38.5729 100.385-38.1562 100.385-37.7812 100.359-37.4531 100.307-37.1719 100.255-36.8906 100.187-36.6615 100.104-36.4844 100.021-36.3073 99.9115-36.1771 99.776-36.0937 99.6406-36.0104 99.4896-35.9687 99.3229-35.9687L83.5104-35.9687 83.5104-23.2812 97.0729-23.2812C97.2396-23.2812 97.3906-23.2344 97.526-23.1406 97.6615-23.0469 97.776-22.9167 97.8698-22.75 97.9635-22.5833 98.0312-22.3542 98.0729-22.0625 98.1146-21.7708 98.1354-21.4271 98.1354-21.0312 98.1354-20.6562 98.1146-20.3333 98.0729-20.0625 98.0312-19.7917 97.9635-19.5729 97.8698-19.4062 97.776-19.2396 97.6615-19.1198 97.526-19.0469 97.3906-18.974 97.2396-18.9375 97.0729-18.9375L83.5104-18.9375 83.5104-4.46875 99.5417-4.46875C99.7083-4.46875 99.8594-4.42708 99.9948-4.34375 100.13-4.26042 100.25-4.13021 100.354-3.95312 100.458-3.77604 100.531-3.54687 100.573-3.26562 100.615-2.98437 100.635-2.63542 100.635-2.21875ZM134.99-38.125C134.99-37.7292 134.969-37.3854 134.927-37.0937 134.885-36.8021 134.818-36.5677 134.724-36.3906 134.63-36.2135 134.516-36.0833 134.38-36 134.245-35.9167 134.094-35.875 133.927-35.875L122.552-35.875 122.552-0.8125C122.552-0.645833 122.51-0.5 122.427-0.375 122.344-0.25 122.198-0.151042 121.99-0.078125 121.781-0.00520833 121.505 0.0572917 121.161 0.109375 120.818 0.161458 120.385 0.1875 119.865 0.1875 119.365 0.1875 118.937 0.161458 118.583 0.109375 118.229 0.0572917 117.948-0.00520833 117.74-0.078125 117.531-0.151042 117.385-0.25 117.302-0.375 117.219-0.5 117.177-0.645833 117.177-0.8125L117.177-35.875 105.802-35.875C105.635-35.875 105.484-35.9167 105.349-36 105.214-36.0833 105.104-36.2135 105.021-36.3906 104.937-36.5677 104.87-36.8021 104.818-37.0937 104.766-37.3854 104.74-37.7292 104.74-38.125 104.74-38.5208 104.766-38.8698 104.818-39.1719 104.87-39.474 104.937-39.7187 105.021-39.9062 105.104-40.0937 105.214-40.2292 105.349-40.3125 105.484-40.3958 105.635-40.4375 105.802-40.4375L133.927-40.4375C134.094-40.4375 134.245-40.3958 134.38-40.3125 134.516-40.2292 134.63-40.0937 134.724-39.9062 134.818-39.7187 134.885-39.474 134.927-39.1719 134.969-38.8698 134.99-38.5208 134.99-38.125ZM166.85-5.71875C166.85-5.38542 166.84-5.09375 166.819-4.84375 166.798-4.59375 166.761-4.375 166.709-4.1875 166.657-4 166.59-3.83333 166.506-3.6875 166.423-3.54167 166.277-3.36458 166.069-3.15625 165.86-2.94792 165.423-2.63021 164.756-2.20312 164.09-1.77604 163.261-1.35937 162.272-0.953125 161.282-0.546875 160.147-0.203125 158.866 0.078125 157.584 0.359375 156.183 0.5 154.662 0.5 152.037 0.5 149.668 0.0625 147.553-0.8125 145.439-1.6875 143.636-2.97917 142.147-4.6875 140.657-6.39583 139.511-8.50521 138.709-11.0156 137.907-13.526 137.506-16.4167 137.506-19.6875 137.506-23.0417 137.939-26.0312 138.803-28.6562 139.668-31.2812 140.881-33.5052 142.444-35.3281 144.006-37.151 145.876-38.5417 148.053-39.5 150.23-40.4583 152.642-40.9375 155.287-40.9375 156.454-40.9375 157.59-40.8281 158.694-40.6094 159.798-40.3906 160.819-40.1146 161.756-39.7812 162.694-39.4479 163.527-39.0625 164.256-38.625 164.985-38.1875 165.491-37.8281 165.772-37.5469 166.053-37.2656 166.235-37.0521 166.319-36.9062 166.402-36.7604 166.47-36.5885 166.522-36.3906 166.574-36.1927 166.616-35.9583 166.647-35.6875 166.678-35.4167 166.694-35.0937 166.694-34.7187 166.694-34.3021 166.673-33.9479 166.631-33.6562 166.589-33.3646 166.526-33.1198 166.443-32.9219 166.359-32.724 166.259-32.5781 166.144-32.4844 166.029-32.3906 165.887-32.3437 165.72-32.3437 165.427-32.3437 165.018-32.5469 164.495-32.9531 163.971-33.3594 163.295-33.8073 162.468-34.2969 161.641-34.7865 160.635-35.2344 159.452-35.6406 158.269-36.0469 156.85-36.25 155.195-36.25 153.394-36.25 151.755-35.8906 150.278-35.1719 148.802-34.4531 147.54-33.3958 146.493-32 145.445-30.6042 144.634-28.901 144.058-26.8906 143.482-24.8802 143.194-22.5833 143.194-20 143.194-17.4375 143.471-15.1719 144.026-13.2031 144.581-11.2344 145.377-9.58854 146.414-8.26562 147.451-6.94271 148.723-5.94271 150.231-5.26562 151.739-4.58854 153.446-4.25 155.352-4.25 156.965-4.25 158.373-4.44792 159.577-4.84375 160.782-5.23958 161.808-5.68229 162.656-6.17187 163.504-6.66146 164.2-7.10417 164.745-7.5 165.29-7.89583 165.719-8.09375 166.033-8.09375 166.18-8.09375 166.306-8.0625 166.41-8 166.515-7.9375 166.599-7.81771 166.662-7.64062 166.724-7.46354 166.771-7.21875 166.803-6.90625 166.834-6.59375 166.85-6.19792 166.85-5.71875ZM199.069-20.3125C199.069-17.2083 198.824-14.375 198.334-11.8125 197.845-9.25 197.032-7.04687 195.897-5.20312 194.761-3.35937 193.277-1.93229 191.444-0.921875 189.61 0.0885416 187.35 0.59375 184.662 0.59375 182.121 0.59375 179.98 0.140625 178.241-0.765625 176.501-1.67187 175.1-3.00521 174.037-4.76562 172.975-6.52604 172.22-8.69271 171.772-11.2656 171.324-13.8385 171.1-16.7917 171.1-20.125 171.1-23.2083 171.35-26.0365 171.85-28.6094 172.35-31.1823 173.162-33.3906 174.287-35.2344 175.412-37.0781 176.892-38.5052 178.725-39.5156 180.558-40.526 182.808-41.0312 185.475-41.0312 188.037-41.0312 190.189-40.5781 191.928-39.6719 193.668-38.7656 195.069-37.4323 196.131-35.6719 197.194-33.9115 197.949-31.7448 198.397-29.1719 198.845-26.599 199.069-23.6458 199.069-20.3125ZM193.569-19.9375C193.569-21.9583 193.496-23.7708 193.35-25.375 193.204-26.9792 192.991-28.3958 192.709-29.625 192.428-30.8542 192.064-31.9115 191.616-32.7969 191.168-33.6823 190.631-34.4115 190.006-34.9844 189.381-35.5573 188.668-35.974 187.866-36.2344 187.064-36.4948 186.162-36.625 185.162-36.625 183.392-36.625 181.954-36.2083 180.85-35.375 179.746-34.5417 178.876-33.3958 178.241-31.9375 177.605-30.4792 177.173-28.7708 176.944-26.8125 176.715-24.8542 176.6-22.75 176.6-20.5 176.6-17.4792 176.756-14.9115 177.069-12.7969 177.381-10.6823 177.876-8.95833 178.553-7.625 179.23-6.29167 180.095-5.32292 181.147-4.71875 182.199-4.11458 183.475-3.8125 184.975-3.8125 186.142-3.8125 187.168-4 188.053-4.375 188.939-4.75 189.699-5.28646 190.334-5.98437 190.97-6.68229 191.496-7.52083 191.912-8.5 192.329-9.47917 192.662-10.5625 192.912-11.75 193.162-12.9375 193.334-14.224 193.428-15.6094 193.522-16.9948 193.569-18.4375 193.569-19.9375Z" fill="#FFFFFF" transform="matrix(1 0 0 1 60.7903 101)"/></g></g><path d="M2020 2068.67C2020 2049.52 2035.52 2034 2054.67 2034L2625.33 2034C2644.48 2034 2660 2049.52 2660 2068.67L2660 2207.33C2660 2226.48 2644.48 2242 2625.33 2242L2054.67 2242C2035.52 2242 2020 2226.48 2020 2207.33Z" fill="#7F7F7F" fill-rule="evenodd"/><text fill="#FFFFFF" font-family="Calibri,Calibri_MSFontService,sans-serif" font-weight="400" font-size="64" transform="matrix(1 0 0 1 2062.79 2159)">ENETC0</text><rect x="2422.5" y="2059.5" width="188" height="158" stroke="#2F528F" stroke-width="4.58333" stroke-miterlimit="8" fill="#FFFFFF"/><text fill="#181717" font-family="Calibri,Calibri_MSFontService,sans-serif" font-weight="400" font-size="83" transform="matrix(1 0 0 1 2494.78 2138)">0</text><text fill="#181717" font-family="Calibri,Calibri_MSFontService,sans-serif" font-weight="400" font-size="46" transform="matrix(1 0 0 1 2472.71 2203)">eth0</text><path d="M2610 2158 3049.65 2158 3049.65 2158.18 3489.29 2158.18" stroke="#00B0F0" stroke-width="13.75" stroke-linecap="square" stroke-miterlimit="8" stroke-dasharray="41.25 13.75" fill="none" fill-rule="evenodd"/><g filter="url(#fx4)" transform="translate(2000 1255)"><g><path d="M21.9999 56.5426C21.9999 37.3963 37.521 21.8751 56.6672 21.8751L627.333 21.8751C646.479 21.8751 662 37.3963 662 56.5426L662 195.208C662 214.354 646.479 229.875 627.333 229.875L56.6672 229.875C37.521 229.875 21.9999 214.354 21.9999 195.208Z" fill="#7F7F7F" fill-rule="evenodd"/></g></g><g clip-path="url(#clip11)" filter="url(#fx5)" transform="translate(2005 1301)"><g><path d="M27.875-2.21875C27.875-1.84375 27.8542-1.51562 27.8125-1.23437 27.7708-0.953125 27.6979-0.71875 27.5937-0.53125 27.4896-0.34375 27.3698-0.208333 27.2344-0.125 27.099-0.0416667 26.9479 0 26.7812 0L7.375 0C6.89583 0 6.44271-0.161458 6.01562-0.484375 5.58854-0.807292 5.375-1.375 5.375-2.1875L5.375-38.25C5.375-39.0625 5.58854-39.6302 6.01562-39.9531 6.44271-40.276 6.89583-40.4375 7.375-40.4375L26.5625-40.4375C26.7292-40.4375 26.8802-40.3958 27.0156-40.3125 27.151-40.2292 27.2604-40.0937 27.3437-39.9062 27.4271-39.7187 27.4948-39.4844 27.5469-39.2031 27.599-38.9219 27.625-38.5729 27.625-38.1562 27.625-37.7812 27.599-37.4531 27.5469-37.1719 27.4948-36.8906 27.4271-36.6615 27.3437-36.4844 27.2604-36.3073 27.151-36.1771 27.0156-36.0937 26.8802-36.0104 26.7292-35.9687 26.5625-35.9687L10.75-35.9687 10.75-23.2812 24.3125-23.2812C24.4792-23.2812 24.6302-23.2344 24.7656-23.1406 24.901-23.0469 25.0156-22.9167 25.1094-22.75 25.2031-22.5833 25.2708-22.3542 25.3125-22.0625 25.3542-21.7708 25.375-21.4271 25.375-21.0312 25.375-20.6562 25.3542-20.3333 25.3125-20.0625 25.2708-19.7917 25.2031-19.5729 25.1094-19.4062 25.0156-19.2396 24.901-19.1198 24.7656-19.0469 24.6302-18.974 24.4792-18.9375 24.3125-18.9375L10.75-18.9375 10.75-4.46875 26.7812-4.46875C26.9479-4.46875 27.099-4.42708 27.2344-4.34375 27.3698-4.26042 27.4896-4.13021 27.5937-3.95312 27.6979-3.77604 27.7708-3.54687 27.8125-3.26562 27.8542-2.98437 27.875-2.63542 27.875-2.21875ZM67.4479-2.21875C67.4479-1.80208 67.3779-1.44792 67.238-1.15625 67.098-0.864583 66.9149-0.625 66.6886-0.4375 66.4624-0.25 66.2092-0.114583 65.9291-0.03125 65.649 0.0520833 65.3688 0.09375 65.0885 0.09375L63.3112 0.09375C62.751 0.09375 62.2607 0.0364583 61.8405-0.078125 61.4202-0.192708 61.0216-0.401042 60.6447-0.703125 60.2677-1.00521 59.8907-1.41667 59.5136-1.9375 59.1365-2.45833 58.7363-3.125 58.3131-3.9375L45.9772-26.9375C45.3324-28.125 44.6824-29.3698 44.0273-30.6719 43.3721-31.974 42.7624-33.2396 42.1979-34.4687L42.1354-34.4687C42.1771-32.9687 42.2083-31.4375 42.2292-29.875 42.25-28.3125 42.2604-26.7604 42.2604-25.2187L42.2604-0.8125C42.2604-0.666667 42.2165-0.526042 42.1286-0.390625 42.0407-0.255208 41.8923-0.151042 41.6835-0.078125 41.4747-0.00520833 41.1999 0.0572917 40.859 0.109375 40.5182 0.161458 40.084 0.1875 39.5563 0.1875 39.0286 0.1875 38.5945 0.161458 38.2538 0.109375 37.9132 0.0572917 37.6439-0.00520833 37.446-0.078125 37.248-0.151042 37.1051-0.255208 37.0173-0.390625 36.9294-0.526042 36.8854-0.666667 36.8854-0.8125L36.8854-38.125C36.8854-38.9583 37.122-39.5521 37.5951-39.9062 38.0683-40.2604 38.5843-40.4375 39.1432-40.4375L41.7882-40.4375C42.4116-40.4375 42.933-40.3854 43.3525-40.2812 43.7719-40.1771 44.1482-40.0052 44.4814-39.7656 44.8145-39.526 45.137-39.1927 45.4489-38.7656 45.7607-38.3385 46.0879-37.8021 46.4303-37.1562L55.9137-19.4062C56.4977-18.3229 57.0615-17.2656 57.6051-16.2344 58.1488-15.2031 58.6723-14.1875 59.1757-13.1875 59.6791-12.1875 60.1774-11.2031 60.6706-10.2344 61.1637-9.26562 61.652-8.29167 62.1354-7.3125L62.1667-7.3125C62.125-8.95833 62.099-10.6719 62.0885-12.4531 62.0781-14.2344 62.0729-15.9479 62.0729-17.5937L62.0729-39.5312C62.0729-39.6771 62.1169-39.8125 62.2048-39.9375 62.2926-40.0625 62.441-40.1719 62.6498-40.2656 62.8586-40.3594 63.1335-40.4271 63.4743-40.4687 63.8151-40.5104 64.2603-40.5312 64.8097-40.5312 65.2935-40.5312 65.7112-40.5104 66.0629-40.4687 66.4146-40.4271 66.6894-40.3594 66.8874-40.2656 67.0853-40.1719 67.2282-40.0625 67.3161-39.9375 67.404-39.8125 67.4479-39.6771 67.4479-39.5312ZM100.635-2.21875C100.635-1.84375 100.615-1.51562 100.573-1.23437 100.531-0.953125 100.458-0.71875 100.354-0.53125 100.25-0.34375 100.13-0.208333 99.9948-0.125 99.8594-0.0416667 99.7083 0 99.5417 0L80.1354 0C79.6562 0 79.2031-0.161458 78.776-0.484375 78.349-0.807292 78.1354-1.375 78.1354-2.1875L78.1354-38.25C78.1354-39.0625 78.349-39.6302 78.776-39.9531 79.2031-40.276 79.6562-40.4375 80.1354-40.4375L99.3229-40.4375C99.4896-40.4375 99.6406-40.3958 99.776-40.3125 99.9115-40.2292 100.021-40.0937 100.104-39.9062 100.187-39.7187 100.255-39.4844 100.307-39.2031 100.359-38.9219 100.385-38.5729 100.385-38.1562 100.385-37.7812 100.359-37.4531 100.307-37.1719 100.255-36.8906 100.187-36.6615 100.104-36.4844 100.021-36.3073 99.9115-36.1771 99.776-36.0937 99.6406-36.0104 99.4896-35.9687 99.3229-35.9687L83.5104-35.9687 83.5104-23.2812 97.0729-23.2812C97.2396-23.2812 97.3906-23.2344 97.526-23.1406 97.6615-23.0469 97.776-22.9167 97.8698-22.75 97.9635-22.5833 98.0312-22.3542 98.0729-22.0625 98.1146-21.7708 98.1354-21.4271 98.1354-21.0312 98.1354-20.6562 98.1146-20.3333 98.0729-20.0625 98.0312-19.7917 97.9635-19.5729 97.8698-19.4062 97.776-19.2396 97.6615-19.1198 97.526-19.0469 97.3906-18.974 97.2396-18.9375 97.0729-18.9375L83.5104-18.9375 83.5104-4.46875 99.5417-4.46875C99.7083-4.46875 99.8594-4.42708 99.9948-4.34375 100.13-4.26042 100.25-4.13021 100.354-3.95312 100.458-3.77604 100.531-3.54687 100.573-3.26562 100.615-2.98437 100.635-2.63542 100.635-2.21875ZM134.99-38.125C134.99-37.7292 134.969-37.3854 134.927-37.0937 134.885-36.8021 134.818-36.5677 134.724-36.3906 134.63-36.2135 134.516-36.0833 134.38-36 134.245-35.9167 134.094-35.875 133.927-35.875L122.552-35.875 122.552-0.8125C122.552-0.645833 122.51-0.5 122.427-0.375 122.344-0.25 122.198-0.151042 121.99-0.078125 121.781-0.00520833 121.505 0.0572917 121.161 0.109375 120.818 0.161458 120.385 0.1875 119.865 0.1875 119.365 0.1875 118.937 0.161458 118.583 0.109375 118.229 0.0572917 117.948-0.00520833 117.74-0.078125 117.531-0.151042 117.385-0.25 117.302-0.375 117.219-0.5 117.177-0.645833 117.177-0.8125L117.177-35.875 105.802-35.875C105.635-35.875 105.484-35.9167 105.349-36 105.214-36.0833 105.104-36.2135 105.021-36.3906 104.937-36.5677 104.87-36.8021 104.818-37.0937 104.766-37.3854 104.74-37.7292 104.74-38.125 104.74-38.5208 104.766-38.8698 104.818-39.1719 104.87-39.474 104.937-39.7187 105.021-39.9062 105.104-40.0937 105.214-40.2292 105.349-40.3125 105.484-40.3958 105.635-40.4375 105.802-40.4375L133.927-40.4375C134.094-40.4375 134.245-40.3958 134.38-40.3125 134.516-40.2292 134.63-40.0937 134.724-39.9062 134.818-39.7187 134.885-39.474 134.927-39.1719 134.969-38.8698 134.99-38.5208 134.99-38.125ZM166.85-5.71875C166.85-5.38542 166.84-5.09375 166.819-4.84375 166.798-4.59375 166.761-4.375 166.709-4.1875 166.657-4 166.59-3.83333 166.506-3.6875 166.423-3.54167 166.277-3.36458 166.069-3.15625 165.86-2.94792 165.423-2.63021 164.756-2.20312 164.09-1.77604 163.261-1.35937 162.272-0.953125 161.282-0.546875 160.147-0.203125 158.866 0.078125 157.584 0.359375 156.183 0.5 154.662 0.5 152.037 0.5 149.668 0.0625 147.553-0.8125 145.439-1.6875 143.636-2.97917 142.147-4.6875 140.657-6.39583 139.511-8.50521 138.709-11.0156 137.907-13.526 137.506-16.4167 137.506-19.6875 137.506-23.0417 137.939-26.0312 138.803-28.6562 139.668-31.2812 140.881-33.5052 142.444-35.3281 144.006-37.151 145.876-38.5417 148.053-39.5 150.23-40.4583 152.642-40.9375 155.287-40.9375 156.454-40.9375 157.59-40.8281 158.694-40.6094 159.798-40.3906 160.819-40.1146 161.756-39.7812 162.694-39.4479 163.527-39.0625 164.256-38.625 164.985-38.1875 165.491-37.8281 165.772-37.5469 166.053-37.2656 166.235-37.0521 166.319-36.9062 166.402-36.7604 166.47-36.5885 166.522-36.3906 166.574-36.1927 166.616-35.9583 166.647-35.6875 166.678-35.4167 166.694-35.0937 166.694-34.7187 166.694-34.3021 166.673-33.9479 166.631-33.6562 166.589-33.3646 166.526-33.1198 166.443-32.9219 166.359-32.724 166.259-32.5781 166.144-32.4844 166.029-32.3906 165.887-32.3437 165.72-32.3437 165.427-32.3437 165.018-32.5469 164.495-32.9531 163.971-33.3594 163.295-33.8073 162.468-34.2969 161.641-34.7865 160.635-35.2344 159.452-35.6406 158.269-36.0469 156.85-36.25 155.195-36.25 153.394-36.25 151.755-35.8906 150.278-35.1719 148.802-34.4531 147.54-33.3958 146.493-32 145.445-30.6042 144.634-28.901 144.058-26.8906 143.482-24.8802 143.194-22.5833 143.194-20 143.194-17.4375 143.471-15.1719 144.026-13.2031 144.581-11.2344 145.377-9.58854 146.414-8.26562 147.451-6.94271 148.723-5.94271 150.231-5.26562 151.739-4.58854 153.446-4.25 155.352-4.25 156.965-4.25 158.373-4.44792 159.577-4.84375 160.782-5.23958 161.808-5.68229 162.656-6.17187 163.504-6.66146 164.2-7.10417 164.745-7.5 165.29-7.89583 165.719-8.09375 166.033-8.09375 166.18-8.09375 166.306-8.0625 166.41-8 166.515-7.9375 166.599-7.81771 166.662-7.64062 166.724-7.46354 166.771-7.21875 166.803-6.90625 166.834-6.59375 166.85-6.19792 166.85-5.71875ZM197.819-2.125C197.819-1.72917 197.787-1.39583 197.725-1.125 197.662-0.854167 197.579-0.635417 197.475-0.46875 197.371-0.302083 197.251-0.182292 197.116-0.109375 196.98-0.0364583 196.84 0 196.694 0L175.569 0C175.423 0 175.287-0.0364583 175.162-0.109375 175.037-0.182292 174.918-0.302083 174.803-0.46875 174.689-0.635417 174.6-0.854167 174.537-1.125 174.475-1.39583 174.444-1.72917 174.444-2.125 174.444-2.5 174.475-2.82292 174.537-3.09375 174.6-3.36458 174.678-3.58854 174.772-3.76562 174.866-3.94271 174.98-4.07812 175.116-4.17187 175.251-4.26562 175.402-4.3125 175.569-4.3125L184.006-4.3125 184.006-35.0625 176.194-30.4062C175.798-30.1979 175.48-30.0729 175.241-30.0312 175.001-29.9896 174.808-30.0365 174.662-30.1719 174.517-30.3073 174.418-30.5312 174.366-30.8437 174.314-31.1562 174.287-31.5521 174.287-32.0312 174.287-32.3854 174.303-32.6875 174.334-32.9375 174.366-33.1875 174.412-33.3958 174.475-33.5625 174.537-33.7292 174.626-33.875 174.741-34 174.855-34.125 175.006-34.25 175.194-34.375L184.506-40.3437C184.59-40.4062 184.694-40.4583 184.819-40.5 184.944-40.5417 185.1-40.5833 185.287-40.625 185.475-40.6667 185.694-40.6927 185.944-40.7031 186.194-40.7135 186.506-40.7187 186.881-40.7187 187.381-40.7187 187.798-40.6979 188.131-40.6562 188.465-40.6146 188.725-40.5573 188.912-40.4844 189.1-40.4115 189.225-40.3177 189.287-40.2031 189.35-40.0885 189.381-39.9687 189.381-39.8437L189.381-4.3125 196.694-4.3125C196.86-4.3125 197.017-4.26562 197.162-4.17187 197.308-4.07812 197.428-3.94271 197.522-3.76562 197.616-3.58854 197.689-3.36458 197.741-3.09375 197.793-2.82292 197.819-2.5 197.819-2.125ZM206.756 7.53125C206.673 7.80208 206.564 8.01562 206.428 8.17187 206.293 8.32812 206.121 8.44792 205.912 8.53125 205.704 8.61458 205.449 8.67708 205.147 8.71875 204.845 8.76042 204.475 8.78125 204.037 8.78125 203.517 8.78125 203.084 8.74479 202.741 8.67187 202.397 8.59896 202.131 8.49479 201.944 8.35937 201.756 8.22396 201.642 8.05729 201.6 7.85937 201.558 7.66146 201.6 7.42708 201.725 7.15625L220.631-44.6875C220.715-44.9583 220.824-45.1719 220.959-45.3281 221.095-45.4844 221.261-45.6094 221.459-45.7031 221.657-45.7969 221.912-45.8594 222.225-45.8906 222.537-45.9219 222.912-45.9375 223.35-45.9375 223.871-45.9375 224.298-45.901 224.631-45.8281 224.965-45.7552 225.225-45.6562 225.412-45.5312 225.6-45.4062 225.715-45.2396 225.756-45.0312 225.798-44.8229 225.767-44.5833 225.662-44.3125ZM256.36-28.5937C256.36-26.5729 256.027-24.75 255.36-23.125 254.694-21.5 253.741-20.1146 252.501-18.9687 251.261-17.8229 249.741-16.9375 247.939-16.3125 246.136-15.6875 243.985-15.375 241.485-15.375L236.892-15.375 236.892-0.8125C236.892-0.645833 236.845-0.5 236.751-0.375 236.657-0.25 236.511-0.151042 236.314-0.078125 236.116-0.00520833 235.845 0.0572917 235.501 0.109375 235.157 0.161458 234.725 0.1875 234.204 0.1875 233.683 0.1875 233.251 0.161458 232.907 0.109375 232.564 0.0572917 232.287-0.00520833 232.079-0.078125 231.871-0.151042 231.725-0.25 231.642-0.375 231.558-0.5 231.517-0.645833 231.517-0.8125L231.517-38.125C231.517-38.9583 231.735-39.5521 232.173-39.9062 232.61-40.2604 233.1-40.4375 233.642-40.4375L242.298-40.4375C243.173-40.4375 244.011-40.401 244.814-40.3281 245.616-40.2552 246.564-40.099 247.657-39.8594 248.751-39.6198 249.866-39.1719 251.001-38.5156 252.136-37.8594 253.1-37.0521 253.892-36.0937 254.683-35.1354 255.293-34.026 255.72-32.7656 256.147-31.5052 256.36-30.1146 256.36-28.5937ZM250.704-28.1562C250.704-29.8021 250.397-31.1771 249.782-32.2812 249.168-33.3854 248.407-34.2083 247.501-34.75 246.595-35.2917 245.657-35.6354 244.689-35.7812 243.72-35.9271 242.777-36 241.86-36L236.892-36 236.892-19.7812 241.735-19.7812C243.36-19.7812 244.709-19.9896 245.782-20.4062 246.855-20.8229 247.756-21.401 248.485-22.1406 249.215-22.8802 249.767-23.7656 250.142-24.7969 250.517-25.8281 250.704-26.9479 250.704-28.1562ZM286.465-11.3437C286.465-9.44792 286.116-7.76042 285.418-6.28125 284.72-4.80208 283.751-3.54687 282.511-2.51562 281.272-1.48437 279.814-0.708333 278.136-0.1875 276.459 0.333333 274.652 0.59375 272.715 0.59375 271.36 0.59375 270.105 0.479167 268.949 0.25 267.793 0.0208333 266.761-0.260417 265.855-0.59375 264.949-0.927083 264.189-1.27083 263.574-1.625 262.959-1.97917 262.532-2.28125 262.293-2.53125 262.053-2.78125 261.876-3.09896 261.761-3.48437 261.647-3.86979 261.59-4.38542 261.59-5.03125 261.59-5.48958 261.61-5.86979 261.652-6.17187 261.694-6.47396 261.756-6.71875 261.84-6.90625 261.923-7.09375 262.027-7.22396 262.152-7.29687 262.277-7.36979 262.423-7.40625 262.59-7.40625 262.881-7.40625 263.293-7.22917 263.824-6.875 264.355-6.52083 265.037-6.13542 265.871-5.71875 266.704-5.30208 267.709-4.91146 268.886-4.54687 270.064-4.18229 271.423-4 272.965-4 274.131-4 275.199-4.15625 276.168-4.46875 277.136-4.78125 277.97-5.22396 278.668-5.79687 279.366-6.36979 279.902-7.07292 280.277-7.90625 280.652-8.73958 280.84-9.6875 280.84-10.75 280.84-11.8958 280.579-12.875 280.058-13.6875 279.537-14.5 278.85-15.2135 277.996-15.8281 277.142-16.4427 276.168-17.0052 275.074-17.5156 273.98-18.026 272.86-18.5469 271.715-19.0781 270.569-19.6094 269.454-20.1979 268.371-20.8437 267.287-21.4896 266.319-22.25 265.465-23.125 264.61-24 263.918-25.026 263.386-26.2031 262.855-27.3802 262.59-28.7917 262.59-30.4375 262.59-32.125 262.897-33.6302 263.511-34.9531 264.126-36.276 264.98-37.3854 266.074-38.2812 267.168-39.1771 268.47-39.8594 269.98-40.3281 271.491-40.7969 273.121-41.0312 274.871-41.0312 275.767-41.0312 276.668-40.9531 277.574-40.7969 278.48-40.6406 279.334-40.4323 280.136-40.1719 280.939-39.9115 281.652-39.6198 282.277-39.2969 282.902-38.974 283.314-38.7135 283.511-38.5156 283.709-38.3177 283.84-38.1615 283.902-38.0469 283.965-37.9323 284.017-37.7865 284.058-37.6094 284.1-37.4323 284.131-37.2187 284.152-36.9687 284.173-36.7187 284.183-36.3958 284.183-36 284.183-35.625 284.168-35.2917 284.136-35 284.105-34.7083 284.058-34.4635 283.996-34.2656 283.933-34.0677 283.845-33.9219 283.73-33.8281 283.616-33.7344 283.485-33.6875 283.34-33.6875 283.11-33.6875 282.751-33.8333 282.261-34.125 281.772-34.4167 281.173-34.7448 280.465-35.1094 279.756-35.474 278.918-35.8073 277.949-36.1094 276.98-36.4115 275.892-36.5625 274.683-36.5625 273.558-36.5625 272.579-36.4115 271.746-36.1094 270.912-35.8073 270.225-35.4062 269.683-34.9062 269.142-34.4062 268.735-33.8125 268.465-33.125 268.194-32.4375 268.058-31.7083 268.058-30.9375 268.058-29.8125 268.319-28.8437 268.84-28.0312 269.36-27.2187 270.053-26.5 270.918-25.875 271.782-25.25 272.767-24.6771 273.871-24.1562 274.975-23.6354 276.1-23.1094 277.246-22.5781 278.392-22.0469 279.517-21.4635 280.621-20.8281 281.725-20.1927 282.709-19.4427 283.574-18.5781 284.439-17.7135 285.136-16.6927 285.668-15.5156 286.199-14.3385 286.465-12.9479 286.465-11.3437ZM299.34-0.8125C299.34-0.645833 299.298-0.5 299.215-0.375 299.131-0.25 298.985-0.151042 298.777-0.078125 298.569-0.00520833 298.293 0.0572917 297.949 0.109375 297.605 0.161458 297.173 0.1875 296.652 0.1875 296.152 0.1875 295.725 0.161458 295.371 0.109375 295.017 0.0572917 294.735-0.00520833 294.527-0.078125 294.319-0.151042 294.173-0.25 294.09-0.375 294.006-0.5 293.965-0.645833 293.965-0.8125L293.965-39.625C293.965-39.7917 294.011-39.9375 294.105-40.0625 294.199-40.1875 294.355-40.2865 294.574-40.3594 294.793-40.4323 295.074-40.4948 295.418-40.5469 295.761-40.599 296.173-40.625 296.652-40.625 297.173-40.625 297.605-40.599 297.949-40.5469 298.293-40.4948 298.569-40.4323 298.777-40.3594 298.985-40.2865 299.131-40.1875 299.215-40.0625 299.298-39.9375 299.34-39.7917 299.34-39.625Z" fill="#FFFFFF" transform="matrix(1 0 0 1 60.3762 102)"/></g></g><path d="M2022 1304.67C2022 1285.52 2037.52 1270 2056.67 1270L2627.33 1270C2646.48 1270 2662 1285.52 2662 1304.67L2662 1443.33C2662 1462.48 2646.48 1478 2627.33 1478L2056.67 1478C2037.52 1478 2022 1462.48 2022 1443.33Z" fill="#7F7F7F" fill-rule="evenodd"/><text fill="#FFFFFF" font-family="Calibri,Calibri_MSFontService,sans-serif" font-weight="400" font-size="64" transform="matrix(1 0 0 1 2065.38 1396)">ENETC1/PSI</text><rect x="2425.5" y="1297.5" width="188" height="159" stroke="#2F528F" stroke-width="4.58333" stroke-miterlimit="8" fill="#FFFFFF"/><text fill="#181717" font-family="Calibri,Calibri_MSFontService,sans-serif" font-weight="400" font-size="83" transform="matrix(1 0 0 1 2498.4 1377)">1</text><text fill="#181717" font-family="Calibri,Calibri_MSFontService,sans-serif" font-weight="400" font-size="46" transform="matrix(1 0 0 1 2476.33 1442)">eth1</text><path d="M2613 1377 2769.15 1377 2769.15 1522.28 2925.3 1522.28" stroke="#00B0F0" stroke-width="13.75" stroke-linecap="square" stroke-miterlimit="8" stroke-dasharray="41.25 13.75" fill="none" fill-rule="evenodd"/></g></svg>