<svg width="4240" height="2393" xmlns="http://www.w3.org/2000/svg" xmlns:xlink="http://www.w3.org/1999/xlink" xml:space="preserve" overflow="hidden"><defs><linearGradient x1="895.5" y1="28.9999" x2="895.5" y2="556" gradientUnits="userSpaceOnUse" spreadMethod="reflect" id="fill0"><stop offset="0" stop-color="#9B9B9B"/><stop offset="0.5" stop-color="#8E8E8E"/><stop offset="1" stop-color="#797979"/></linearGradient></defs><g transform="translate(-106 -18)"><path d="M0 303.839C0 136.033 136.033-1.28014e-13 303.838-1.28014e-13L1707.16 0C1874.97-6.40068e-14 2011 136.033 2011 303.839L2011 1519.16C2011 1686.97 1874.97 1823 1707.16 1823L303.838 1823C136.033 1823 0 1686.97 0 1519.16Z" stroke="#548235" stroke-width="4.58333" stroke-miterlimit="8" fill="#C5E0B4" fill-rule="evenodd" transform="matrix(-1 0 0 1 4343.5 585.5)"/><text font-family="Calibri,Calibri_MSFontService,sans-serif" font-weight="700" font-size="83" transform="matrix(1 0 0 1 2454.37 768)">i.MX RT1180</text><path d="M2582 1730 2587.12 1730" stroke="#4472C4" stroke-width="2.29167" stroke-miterlimit="8" fill="none" fill-rule="evenodd"/><rect x="0" y="0" width="810" height="1285" stroke="#507E32" stroke-width="4.58333" stroke-miterlimit="8" fill="#548235" transform="matrix(-1 0 0 1 3353.5 1071.5)"/><rect x="0" y="0" width="153" height="121" stroke="#2F528F" stroke-width="4.58333" stroke-miterlimit="8" fill="#FFFFFF" transform="matrix(-1 0 0 1 2798.5 1170.5)"/><text fill="#181717" font-family="Calibri,Calibri_MSFontService,sans-serif" font-weight="400" font-size="83" transform="matrix(1 0 0 1 2700.7 1258)">2</text><rect x="0" y="0" width="153" height="121" stroke="#2F528F" stroke-width="4.58333" stroke-miterlimit="8" fill="#FFFFFF" transform="matrix(-1 0 0 1 2793.5 1480.5)"/><text fill="#181717" font-family="Calibri,Calibri_MSFontService,sans-serif" font-weight="400" font-size="83" transform="matrix(1 0 0 1 2695.98 1568)">3</text><rect x="0" y="0" width="153" height="121" stroke="#2F528F" stroke-width="4.58333" stroke-miterlimit="8" fill="#FFFFFF" transform="matrix(-1 0 0 1 2793.5 1840.5)"/><text fill="#181717" font-family="Calibri,Calibri_MSFontService,sans-serif" font-weight="400" font-size="83" transform="matrix(1 0 0 1 2695.98 1928)">4</text><path d="M0 127.502C-2.51444e-14 57.0848 57.0848 0 127.502 0L662.498 0C732.915-2.51444e-14 790 57.0848 790 127.502L790 637.497C790 707.915 732.915 765 662.498 765L127.502 765C57.0848 765 0 707.915 0 637.497Z" stroke="#507E32" stroke-width="4.58333" stroke-miterlimit="8" fill="#548235" fill-rule="evenodd" transform="matrix(-1 0 0 1 4292.5 877.5)"/><text fill="#FFFFFF" font-family="Calibri,Calibri_MSFontService,sans-serif" font-weight="400" font-size="64" transform="matrix(1 0 0 1 3681.84 991)">User Application</text><text fill="#FFFFFF" font-family="Calibri,Calibri_MSFontService,sans-serif" font-weight="400" font-size="64" transform="matrix(1 0 0 1 3738.81 1068)">(Cortex</text><text fill="#FFFFFF" font-family="Calibri,Calibri_MSFontService,sans-serif" font-weight="400" font-size="64" transform="matrix(1 0 0 1 3929.09 1068)">-</text><text fill="#FFFFFF" font-family="Calibri,Calibri_MSFontService,sans-serif" font-weight="400" font-size="64" transform="matrix(1 0 0 1 3948.56 1068)">M7)</text><text fill="#FFFFFF" font-family="Calibri,Calibri_MSFontService,sans-serif" font-weight="400" font-size="73" transform="matrix(1 0 0 1 2921.29 1162)">TSN Bridge 1</text><text fill="#FFFFFF" font-family="Calibri,Calibri_MSFontService,sans-serif" font-weight="400" font-size="73" transform="matrix(1 0 0 1 2921.29 1250)">(</text><text fill="#FFFFFF" font-family="Calibri,Calibri_MSFontService,sans-serif" font-weight="400" font-size="64" transform="matrix(1 0 0 1 2943.63 1250)">Cortex</text><text fill="#FFFFFF" font-family="Calibri,Calibri_MSFontService,sans-serif" font-weight="400" font-size="64" transform="matrix(1 0 0 1 3114.43 1250)">-</text><text fill="#FFFFFF" font-family="Calibri,Calibri_MSFontService,sans-serif" font-weight="400" font-size="64" transform="matrix(1 0 0 1 3133.91 1250)">M33</text><text fill="#FFFFFF" font-family="Calibri,Calibri_MSFontService,sans-serif" font-weight="400" font-size="73" transform="matrix(1 0 0 1 3254.22 1250)">)</text><rect x="0" y="0" width="153" height="121" stroke="#2F528F" stroke-width="4.58333" stroke-miterlimit="8" fill="#FFFFFF" transform="matrix(-1 0 0 1 3354.5 1700.5)"/><text fill="#181717" font-family="Calibri,Calibri_MSFontService,sans-serif" font-weight="400" font-size="83" transform="matrix(1 0 0 1 3256.69 1788)">6</text><rect x="0" y="0" width="360" height="91.0001" stroke="#2F528F" stroke-width="4.58333" stroke-miterlimit="8" fill="#D0CECE" transform="matrix(-1 0 0 1 3792.5 744.5)"/><text font-family="Calibri,Calibri_MSFontService,sans-serif" font-weight="700" font-size="55" transform="matrix(1 0 0 1 3465.71 807)">UART to USB</text><rect x="0" y="0" width="360" height="90.0001" stroke="#2F528F" stroke-width="4.58333" stroke-miterlimit="8" fill="#D0CECE" transform="matrix(-1 0 0 1 3351.5 745.5)"/><text font-family="Calibri,Calibri_MSFontService,sans-serif" font-weight="700" font-size="55" transform="matrix(1 0 0 1 3042.94 808)">DEBUG USB</text><text fill="#FFFFFF" font-family="Calibri,Calibri_MSFontService,sans-serif" font-weight="400" font-size="50" transform="matrix(1 0 0 1 2649.44 1155)">ENET0</text><text fill="#FFFFFF" font-family="Calibri,Calibri_MSFontService,sans-serif" font-weight="400" font-size="50" transform="matrix(1 0 0 1 2647.62 1447)">ENET1</text><text fill="#FFFFFF" font-family="Calibri,Calibri_MSFontService,sans-serif" font-weight="400" font-size="50" transform="matrix(1 0 0 1 2647.62 1803)">ENET2</text><path d="M0 92.6688C-1.23017e-14 41.4892 41.4892-2.46033e-14 92.6687-2.46033e-14L680.331 0C731.511-1.23017e-14 773 41.4892 773 92.6688L773 463.331C773 514.511 731.511 556 680.331 556L92.6687 556C41.4892 556 0 514.511 0 463.331Z" stroke="#507E32" stroke-width="4.58333" stroke-miterlimit="8" fill="#548235" fill-rule="evenodd" transform="matrix(-1 0 0 1 4275.5 1763.5)"/><text fill="#FFFFFF" font-family="Calibri,Calibri_MSFontService,sans-serif" font-weight="400" font-size="73" transform="matrix(1 0 0 1 3753.89 1876)">Endpoint</text><text fill="#FFFFFF" font-family="Calibri,Calibri_MSFontService,sans-serif" font-weight="400" font-size="64" transform="matrix(1 0 0 1 3713.69 1955)">(Cortex</text><text fill="#FFFFFF" font-family="Calibri,Calibri_MSFontService,sans-serif" font-weight="400" font-size="64" transform="matrix(1 0 0 1 3903.97 1955)">-</text><text fill="#FFFFFF" font-family="Calibri,Calibri_MSFontService,sans-serif" font-weight="400" font-size="64" transform="matrix(1 0 0 1 3923.45 1955)">M33)</text><rect x="0" y="0" width="131" height="112" stroke="#2F528F" stroke-width="4.58333" stroke-miterlimit="8" fill="#FFFFFF" transform="matrix(-1 0 0 1 3659.5 2034.5)"/><text fill="#181717" font-family="Calibri,Calibri_MSFontService,sans-serif" font-weight="400" font-size="83" transform="matrix(1 0 0 1 3572.69 2117)">1</text><rect x="0" y="0" width="132" height="112" stroke="#2F528F" stroke-width="4.58333" stroke-miterlimit="8" fill="#FFFFFF" transform="matrix(-1 0 0 1 3662.5 1324.5)"/><text fill="#181717" font-family="Calibri,Calibri_MSFontService,sans-serif" font-weight="400" font-size="83" transform="matrix(1 0 0 1 3575.11 1408)">0</text><rect x="0" y="0" width="132" height="112" stroke="#2F528F" stroke-width="4.58333" stroke-miterlimit="8" fill="#FFFFFF" transform="matrix(-1 0 0 1 2772.5 902.5)"/><text font-family="Calibri,Calibri_MSFontService,sans-serif" font-weight="400" font-size="50" transform="matrix(1 0 0 1 2641.61 888)">ENET4</text><path d="M108.5 889.173C108.5 721.459 244.459 585.5 412.173 585.5L1785.83 585.5C1953.54 585.5 2089.5 721.459 2089.5 889.173L2089.5 2103.83C2089.5 2271.54 1953.54 2407.5 1785.83 2407.5L412.173 2407.5C244.459 2407.5 108.5 2271.54 108.5 2103.83Z" stroke="#548235" stroke-width="4.58333" stroke-miterlimit="8" fill="#C5E0B4" fill-rule="evenodd"/><text font-family="Calibri,Calibri_MSFontService,sans-serif" font-weight="700" font-size="83" transform="matrix(1 0 0 1 230.312 768)">i.MX RT1180</text><rect x="511" y="28.9999" width="769" height="527" stroke="#000000" stroke-width="2.29167" stroke-miterlimit="8" fill="url(#fill0)"/><text fill="#FFFFFF" font-family="Calibri,Calibri_MSFontService,sans-serif" font-weight="700" font-size="105" transform="matrix(1 0 0 1 600.343 279)">PC</text><rect x="975.5" y="76.5002" width="280" height="88.9997" stroke="#2F528F" stroke-width="4.58333" stroke-miterlimit="8" fill="#D0CECE"/><text font-family="Calibri,Calibri_MSFontService,sans-serif" font-weight="700" font-size="50" transform="matrix(1 0 0 1 1072.92 137)">USB</text><rect x="975.5" y="316.5" width="280" height="90.0001" stroke="#2F528F" stroke-width="4.58333" stroke-miterlimit="8" fill="#D0CECE"/><text font-family="Calibri,Calibri_MSFontService,sans-serif" font-weight="700" font-size="50" transform="matrix(1 0 0 1 1072.92 378)">USB</text><text font-family="Calibri,Calibri_MSFontService,sans-serif" font-weight="400" font-size="55" transform="matrix(1 0 0 1 1910.04 86)">USB</text><text font-family="Calibri,Calibri_MSFontService,sans-serif" font-weight="400" font-size="55" transform="matrix(1 0 0 1 763.559 159)">USB</text><rect x="1054.5" y="1070.5" width="810" height="1285" stroke="#507E32" stroke-width="4.58333" stroke-miterlimit="8" fill="#548235"/><rect x="1621.5" y="1172.5" width="153" height="121" stroke="#2F528F" stroke-width="4.58333" stroke-miterlimit="8" fill="#FFFFFF"/><text fill="#181717" font-family="Calibri,Calibri_MSFontService,sans-serif" font-weight="400" font-size="83" transform="matrix(1 0 0 1 1676.39 1260)">2</text><rect x="1621.5" y="1482.5" width="153" height="121" stroke="#2F528F" stroke-width="4.58333" stroke-miterlimit="8" fill="#FFFFFF"/><text fill="#181717" font-family="Calibri,Calibri_MSFontService,sans-serif" font-weight="400" font-size="83" transform="matrix(1 0 0 1 1676.39 1570)">3</text><rect x="1621.5" y="1840.5" width="153" height="121" stroke="#2F528F" stroke-width="4.58333" stroke-miterlimit="8" fill="#FFFFFF"/><text fill="#181717" font-family="Calibri,Calibri_MSFontService,sans-serif" font-weight="400" font-size="83" transform="matrix(1 0 0 1 1676.39 1928)">4</text><rect x="1621.5" y="2198.5" width="153" height="121" stroke="#2F528F" stroke-width="4.58333" stroke-miterlimit="8" fill="#FFFFFF"/><text fill="#181717" font-family="Calibri,Calibri_MSFontService,sans-serif" font-weight="400" font-size="83" transform="matrix(1 0 0 1 1676.39 2286)">5</text><path d="M134.5 1005C134.5 934.585 191.585 877.5 262.002 877.5L796.997 877.5C867.415 877.5 924.5 934.585 924.5 1005L924.5 1515C924.5 1585.42 867.415 1642.5 796.997 1642.5L262.002 1642.5C191.585 1642.5 134.5 1585.42 134.5 1515Z" stroke="#507E32" stroke-width="4.58333" stroke-miterlimit="8" fill="#548235" fill-rule="evenodd"/><text fill="#FFFFFF" font-family="Calibri,Calibri_MSFontService,sans-serif" font-weight="400" font-size="64" transform="matrix(1 0 0 1 313.444 991)">User Application</text><text fill="#FFFFFF" font-family="Calibri,Calibri_MSFontService,sans-serif" font-weight="400" font-size="64" transform="matrix(1 0 0 1 370.415 1068)">(Cortex</text><text fill="#FFFFFF" font-family="Calibri,Calibri_MSFontService,sans-serif" font-weight="400" font-size="64" transform="matrix(1 0 0 1 560.692 1068)">-</text><text fill="#FFFFFF" font-family="Calibri,Calibri_MSFontService,sans-serif" font-weight="400" font-size="64" transform="matrix(1 0 0 1 580.171 1068)">M7)</text><text font-family="Calibri,Calibri_MSFontService,sans-serif" font-weight="400" font-size="55" transform="matrix(1 0 0 1 1831.02 214)">USB</text><text font-family="Calibri,Calibri_MSFontService,sans-serif" font-weight="400" font-size="55" transform="matrix(1 0 0 1 1666.21 334)">USB</text><rect x="975.5" y="197.5" width="280" height="88.9997" stroke="#2F528F" stroke-width="4.58333" stroke-miterlimit="8" fill="#D0CECE"/><text font-family="Calibri,Calibri_MSFontService,sans-serif" font-weight="700" font-size="50" transform="matrix(1 0 0 1 1072.92 258)">USB</text><text fill="#FFFFFF" font-family="Calibri,Calibri_MSFontService,sans-serif" font-weight="400" font-size="73" transform="matrix(1 0 0 1 1157.78 1183)">TSN Bridge 0</text><text fill="#FFFFFF" font-family="Calibri,Calibri_MSFontService,sans-serif" font-weight="400" font-size="73" transform="matrix(1 0 0 1 1157.78 1271)">(</text><text fill="#FFFFFF" font-family="Calibri,Calibri_MSFontService,sans-serif" font-weight="400" font-size="64" transform="matrix(1 0 0 1 1180.13 1271)">Cortex</text><text fill="#FFFFFF" font-family="Calibri,Calibri_MSFontService,sans-serif" font-weight="400" font-size="64" transform="matrix(1 0 0 1 1350.93 1271)">-</text><text fill="#FFFFFF" font-family="Calibri,Calibri_MSFontService,sans-serif" font-weight="400" font-size="64" transform="matrix(1 0 0 1 1370.4 1271)">M33</text><text fill="#FFFFFF" font-family="Calibri,Calibri_MSFontService,sans-serif" font-weight="400" font-size="73" transform="matrix(1 0 0 1 1490.72 1271)">)</text><rect x="1054.5" y="1700.5" width="153" height="121" stroke="#2F528F" stroke-width="4.58333" stroke-miterlimit="8" fill="#FFFFFF"/><text fill="#181717" font-family="Calibri,Calibri_MSFontService,sans-serif" font-weight="400" font-size="83" transform="matrix(1 0 0 1 1109.75 1788)">6</text><rect x="1629.5" y="745.5" width="359" height="90.9998" stroke="#2F528F" stroke-width="4.58333" stroke-miterlimit="8" fill="#D0CECE"/><text font-family="Calibri,Calibri_MSFontService,sans-serif" font-weight="700" font-size="55" transform="matrix(1 0 0 1 1662.52 808)">UART to USB</text><rect x="1222.5" y="745.5" width="359" height="90.0001" stroke="#2F528F" stroke-width="4.58333" stroke-miterlimit="8" fill="#D0CECE"/><text font-family="Calibri,Calibri_MSFontService,sans-serif" font-weight="700" font-size="55" transform="matrix(1 0 0 1 1273.17 808)">DEBUG USB</text><rect x="974.5" y="435.5" width="279" height="89" stroke="#2F528F" stroke-width="4.58333" stroke-miterlimit="8" fill="#D0CECE"/><text font-family="Calibri,Calibri_MSFontService,sans-serif" font-weight="700" font-size="50" transform="matrix(1 0 0 1 1071.16 496)">USB</text><text font-family="Calibri,Calibri_MSFontService,sans-serif" font-weight="400" font-size="55" transform="matrix(1 0 0 1 1427.65 554)">USB</text><path d="M1255 361 1808.27 361 1808.27 745.366" stroke="#000000" stroke-width="13.75" stroke-miterlimit="8" fill="none" fill-rule="evenodd"/><path d="M1253 479 1401.04 479 1401.04 744.799" stroke="#000000" stroke-width="13.75" stroke-miterlimit="8" fill="none" fill-rule="evenodd"/><text fill="#FFFFFF" font-family="Calibri,Calibri_MSFontService,sans-serif" font-weight="400" font-size="50" transform="matrix(1 0 0 1 1634.03 1140)">ENET0</text><text fill="#FFFFFF" font-family="Calibri,Calibri_MSFontService,sans-serif" font-weight="400" font-size="50" transform="matrix(1 0 0 1 1634.03 1449)">ENET1</text><text fill="#FFFFFF" font-family="Calibri,Calibri_MSFontService,sans-serif" font-weight="400" font-size="50" transform="matrix(1 0 0 1 1630.16 1804)">ENET2</text><text fill="#FFFFFF" font-family="Calibri,Calibri_MSFontService,sans-serif" font-weight="400" font-size="50" transform="matrix(1 0 0 1 1630.16 2153)">ENET3</text><path d="M151.5 1856.17C151.5 1804.99 192.989 1763.5 244.169 1763.5L831.831 1763.5C883.011 1763.5 924.5 1804.99 924.5 1856.17L924.5 2226.83C924.5 2278.01 883.011 2319.5 831.831 2319.5L244.169 2319.5C192.989 2319.5 151.5 2278.01 151.5 2226.83Z" stroke="#507E32" stroke-width="4.58333" stroke-miterlimit="8" fill="#548235" fill-rule="evenodd"/><text fill="#FFFFFF" font-family="Calibri,Calibri_MSFontService,sans-serif" font-weight="400" font-size="73" transform="matrix(1 0 0 1 403.092 1876)">Endpoint</text><text fill="#FFFFFF" font-family="Calibri,Calibri_MSFontService,sans-serif" font-weight="400" font-size="64" transform="matrix(1 0 0 1 362.896 1955)">(Cortex</text><text fill="#FFFFFF" font-family="Calibri,Calibri_MSFontService,sans-serif" font-weight="400" font-size="64" transform="matrix(1 0 0 1 553.173 1955)">-</text><text fill="#FFFFFF" font-family="Calibri,Calibri_MSFontService,sans-serif" font-weight="400" font-size="64" transform="matrix(1 0 0 1 572.653 1955)">M33)</text><rect x="765.5" y="1324.5" width="131" height="112" stroke="#2F528F" stroke-width="4.58333" stroke-miterlimit="8" fill="#FFFFFF"/><text fill="#181717" font-family="Calibri,Calibri_MSFontService,sans-serif" font-weight="400" font-size="83" transform="matrix(1 0 0 1 809.418 1408)">0</text><rect x="765.5" y="2034.5" width="131" height="112" stroke="#2F528F" stroke-width="4.58333" stroke-miterlimit="8" fill="#FFFFFF"/><text fill="#181717" font-family="Calibri,Calibri_MSFontService,sans-serif" font-weight="400" font-size="83" transform="matrix(1 0 0 1 809.418 2117)">1</text><path d="M896 1380 975.121 1380 975.121 1760.02 1054.24 1760.02" stroke="#00B0F0" stroke-width="13.75" stroke-linecap="square" stroke-miterlimit="8" stroke-dasharray="41.25 13.75" fill="none" fill-rule="evenodd"/><path d="M0 0 79.1206 0 79.1206 329.6 158.241 329.6" stroke="#00B0F0" stroke-width="13.75" stroke-linecap="square" stroke-miterlimit="8" stroke-dasharray="41.25 13.75" fill="none" fill-rule="evenodd" transform="matrix(1 0 0 -1 896 2089.6)"/><text font-family="Calibri,Calibri_MSFontService,sans-serif" font-weight="400" font-size="55" transform="matrix(1 0 0 1 3877.6 787)">IO Device 1</text><text font-family="Calibri,Calibri_MSFontService,sans-serif" font-weight="400" font-size="55" transform="matrix(1 0 0 1 754.44 787)">Controller</text><rect x="1695.5" y="902.5" width="131" height="112" stroke="#2F528F" stroke-width="4.58333" stroke-miterlimit="8" fill="#FFFFFF"/><text font-family="Calibri,Calibri_MSFontService,sans-serif" font-weight="400" font-size="50" transform="matrix(1 0 0 1 1659.47 888)">ENET4</text><path d="M0 0 88.1626 0 88.1626 380.024 176.325 380.024" stroke="#00B0F0" stroke-width="13.75" stroke-linecap="square" stroke-miterlimit="8" stroke-dasharray="41.25 13.75" fill="none" fill-rule="evenodd" transform="matrix(-1 1.22465e-16 1.22465e-16 1 3530.32 1380)"/><path d="M3527.91 2089.6 3440.95 2089.6 3440.95 1760 3354 1760" stroke="#00B0F0" stroke-width="13.75" stroke-linecap="square" stroke-miterlimit="8" stroke-dasharray="41.25 13.75" fill="none" fill-rule="evenodd"/><path d="M2637.48 2264.29 2205.74 2264.29 2205.74 1900 1774 1900" stroke="#00B0F0" stroke-width="13.75" stroke-miterlimit="8" fill="none" fill-rule="evenodd"/><rect x="0" y="0" width="153" height="121" stroke="#2F528F" stroke-width="4.58333" stroke-miterlimit="8" fill="#FFFFFF" transform="matrix(-1 0 0 1 2782.5 2185.5)"/><text fill="#181717" font-family="Calibri,Calibri_MSFontService,sans-serif" font-weight="400" font-size="83" transform="matrix(1 0 0 1 2685.08 2273)">5</text><text fill="#00B0F0" font-family="Calibri,Calibri_MSFontService,sans-serif" font-weight="700" font-size="55" transform="matrix(1 0 0 1 2098.12 1870)">Ethernet</text><path d="M1255 241 3171.04 241 3171.04 745.021" stroke="#000000" stroke-width="13.75" stroke-miterlimit="8" fill="none" fill-rule="evenodd"/><path d="M1253 96.9999 3609.45 96.9999 3609.45 720.972" stroke="#000000" stroke-width="13.75" stroke-miterlimit="8" fill="none" fill-rule="evenodd"/><text fill="#FFFFFF" font-family="Calibri,Calibri_MSFontService,sans-serif" font-weight="400" font-size="50" transform="matrix(1 0 0 1 2641.12 2153)">ENET3</text></g></svg>