<svg width="2374" height="1217" xmlns="http://www.w3.org/2000/svg" xmlns:xlink="http://www.w3.org/1999/xlink" xml:space="preserve" overflow="hidden"><g transform="translate(-1035 -92)"><path d="M1035.5 1168.5 3369.13 1168.5" stroke="#000000" stroke-width="6.875" stroke-miterlimit="8" fill="none" fill-rule="evenodd"/><path d="M1125.5 92.5 1125.5 1272.77" stroke="#000000" stroke-width="6.875" stroke-linecap="square" stroke-miterlimit="8" stroke-dasharray="20.625 6.875" fill="none" fill-rule="evenodd"/><path d="M1803.5 229.5 1803.5 1168.96" stroke="#000000" stroke-width="6.875" stroke-linecap="square" stroke-miterlimit="8" stroke-dasharray="20.625 6.875" fill="none" fill-rule="evenodd"/><path d="M2847.5 113.5 2847.5 1272.96" stroke="#000000" stroke-width="6.875" stroke-linecap="square" stroke-miterlimit="8" stroke-dasharray="20.625 6.875" fill="none" fill-rule="evenodd"/><path d="M2259.5 1240.06 2807.02 1240.06 2807.02 1246.94 2259.5 1246.94ZM2802.43 1229.75 2829.93 1243.5 2802.43 1257.25Z"/><path d="M2.02555e-06-3.4375 589.543-3.43715 589.543 3.43785-2.02555e-06 3.4375ZM584.96-13.7497 612.46 0.000360892 584.96 13.7503Z" transform="matrix(-1 0 0 1 1743.96 1243.5)"/><path d="M9.87186e-06-3.4375 102.75-3.43721 102.75 3.43779-9.87186e-06 3.4375ZM98.1671-13.7497 125.667 0.000360892 98.167 13.7503Z" transform="matrix(-1 0 0 1 1262.17 314.5)"/><path d="M8.33301e-06-3.4375 125.957-3.43719 125.957 3.43781-8.33301e-06 3.4375ZM121.374-13.7497 148.874 0.000360892 121.374 13.7503Z" transform="matrix(1 0 0 -1 1642.5 314.5)"/><path d="M0.0222195-3.43743 211.764-2.06873 211.72 4.80613-0.0222195 3.43743ZM207.248-12.4106 234.658 1.51683 207.07 15.0888Z" transform="matrix(-1 0 0 1 2049.16 313.5)"/><path d="M2501.5 311.063 2811.99 311.063 2811.99 317.938 2501.5 317.938ZM2807.41 300.75 2834.91 314.5 2807.41 328.25Z"/><path d="M6.90796e-06-3.4375 156.668-3.43719 156.668 3.43781-6.90796e-06 3.4375ZM152.085-13.7497 179.585 0.000360892 152.085 13.7503Z" transform="matrix(-1 0 0 1 3036.09 314.5)"/><path d="M1663.04 189.938 1154.42 189.938 1154.42 183.063 1663.04 183.063ZM1159 200.25 1131.5 186.5 1159 172.75Z"/><path d="M2.1859e-06-3.4375 544.614-3.43715 544.614 3.43785-2.1859e-06 3.4375ZM540.031-13.7497 567.531 0.000360892 540.031 13.7503Z" transform="matrix(1 0 0 -1 2273.5 186.501)"/><path d="M2.42221e-06-3.4375 489.247-3.43716 489.247 3.43784-2.42221e-06 3.4375ZM484.664-13.7497 512.164 0.000360892 484.664 13.7503Z" transform="matrix(-1 0 0 1 3368.66 186.5)"/><path d="M2.45652e-06-3.4375 482.094-3.43716 482.094 3.43784-2.45652e-06 3.4375ZM477.511-13.7497 505.011 0.000360892 477.511 13.7503Z" transform="matrix(-1 0 0 1 3369.51 1243.5)"/><rect x="1131" y="1127" width="66" height="40.9999" fill="#F9B500"/><rect x="1226" y="1127" width="66.9996" height="40.9999" fill="#F9B500"/><rect x="1322" y="1127" width="66" height="40.9999" fill="#F29065"/><rect x="1417" y="1127" width="67" height="40.9999" fill="#F29065"/><rect x="1803" y="920" width="424" height="100" fill="#4E95D9"/><text fill="#FFFFFF" font-family="Calibri,Calibri_MSFontService,sans-serif" font-weight="400" font-size="55" transform="matrix(1 0 0 1 1878.54 988)">control loop</text><rect x="1803" y="704" width="424" height="100" fill="#4E95D9"/><text fill="#FFFFFF" font-family="Calibri,Calibri_MSFontService,sans-serif" font-weight="400" font-size="55" transform="matrix(1 0 0 1 1878.54 771)">control loop</text><rect x="1803" y="487" width="424" height="100" fill="#4E95D9"/><text fill="#FFFFFF" font-family="Calibri,Calibri_MSFontService,sans-serif" font-weight="400" font-size="55" transform="matrix(1 0 0 1 1878.54 555)">control loop</text><text font-family="Calibri,Calibri_MSFontService,sans-serif" font-weight="400" font-size="55" transform="matrix(1 0 0 1 1294.99 331)">transfer time</text><text font-family="Calibri,Calibri_MSFontService,sans-serif" font-weight="400" font-size="55" transform="matrix(1 0 0 1 2081.82 331)">processing time</text><text font-family="Calibri,Calibri_MSFontService,sans-serif" font-weight="400" font-size="55" transform="matrix(1 0 0 1 3070.37 331)">transfer time</text><text font-family="Calibri,Calibri_MSFontService,sans-serif" font-weight="400" font-size="55" transform="matrix(1 0 0 1 1695.47 204)">application cycle time</text><text font-family="Calibri,Calibri_MSFontService,sans-serif" font-weight="400" font-size="55" transform="matrix(1 0 0 1 1776.4 1260)">network </text><text font-family="Calibri,Calibri_MSFontService,sans-serif" font-weight="400" font-size="55" transform="matrix(1 0 0 1 1975.54 1260)">cycle</text><text font-family="Calibri,Calibri_MSFontService,sans-serif" font-weight="400" font-size="55" transform="matrix(1 0 0 1 2099.18 1260)">time</text><rect x="2864" y="1127" width="66" height="41.9999" fill="#F9B500"/><rect x="2959" y="1127" width="67" height="41.9999" fill="#F9B500"/><rect x="3054" y="1127" width="67" height="41.9999" fill="#F6B598"/><rect x="3150" y="1127" width="66" height="41.9999" fill="#F6B598"/><text fill="#4E95D9" font-family="Calibri,Calibri_MSFontService,sans-serif" font-weight="400" font-size="55" transform="matrix(1 0 0 1 1836.07 880)">controller</text><text fill="#4E95D9" font-family="Calibri,Calibri_MSFontService,sans-serif" font-weight="400" font-size="55" transform="matrix(1 0 0 1 1836.07 663)">IO device 2</text><text fill="#4E95D9" font-family="Calibri,Calibri_MSFontService,sans-serif" font-weight="400" font-size="55" transform="matrix(1 0 0 1 1836.07 447)">IO device 1</text><path d="M1161.06 1126.93 1161.3 1113.06 1162 1099.14 1163.15 1085.23 1164.76 1071.35 1166.8 1057.49 1169.29 1043.68 1172.19 1029.9 1175.52 1016.18 1179.26 1002.51 1183.4 988.905 1187.94 975.37 1192.87 961.913 1198.18 948.539 1203.88 935.235 1216.33 908.985 1230.21 883.156 1245.43 857.822 1261.95 833.035 1279.69 808.85 1298.61 785.319 1318.64 762.497 1339.73 740.435 1361.82 719.189 1384.84 698.811 1408.75 679.355 1433.48 660.875 1458.97 643.425 1485.17 627.059 1512.02 611.83 1539.46 597.793 1567.43 585.001 1595.88 573.51 1624.74 563.373 1653.94 554.652 1668.68 550.828 1683.48 547.383 1698.33 544.317 1713.24 541.638 1728.19 539.352 1743.18 537.466 1758.2 535.987 1773.27 534.921 1780.36 534.69 1780.59 541.561 1773.56 541.79 1773.69 541.784 1758.74 542.842 1758.83 542.834 1743.9 544.303 1743.99 544.293 1729.09 546.167 1729.18 546.155 1714.32 548.427 1714.41 548.412 1699.59 551.076 1699.68 551.059 1684.91 554.107 1684.99 554.089 1670.29 557.515 1670.37 557.494 1655.72 561.291 1655.85 561.257 1626.79 569.937 1626.94 569.887 1598.23 579.97 1598.38 579.914 1570.08 591.347 1570.22 591.286 1542.39 604.013 1542.53 603.948 1515.22 617.917 1515.35 617.846 1488.63 633.003 1488.75 632.928 1462.68 649.218 1462.8 649.139 1437.42 666.508 1437.54 666.425 1412.92 684.82 1413.04 684.732 1389.24 704.098 1389.35 704.006 1366.43 724.29 1366.53 724.193 1344.55 745.34 1344.65 745.238 1323.66 767.194 1323.76 767.087 1303.83 789.799 1303.92 789.685 1285.1 813.099 1285.19 812.978 1267.54 837.04 1267.62 836.912 1251.2 861.567 1251.28 861.432 1236.14 886.626 1236.23 886.483 1222.43 912.163 1222.51 912.01 1210.12 938.122 1210.17 938.001 1204.52 951.202 1204.56 951.118 1199.28 964.407 1199.31 964.321 1194.42 977.691 1194.45 977.602 1189.94 991.045 1189.97 990.954 1185.85 1004.47 1185.88 1004.37 1182.17 1017.94 1182.19 1017.85 1178.89 1031.47 1178.91 1031.37 1176.02 1045.05 1176.04 1044.94 1173.58 1058.66 1173.6 1058.55 1171.57 1072.3 1171.58 1072.19 1169.99 1085.97 1170 1085.86 1168.85 1099.65 1168.86 1099.54 1168.17 1113.35 1168.17 1113.23 1167.94 1127.05ZM1775.52 524.505 1803.38 537.5 1776.27 551.995Z" fill="#F9B500"/><path d="M2227.53 534.063 2249.98 534.278 2272.45 534.92 2294.89 535.982 2317.31 537.457 2339.67 539.338 2361.98 541.618 2384.23 544.291 2406.4 547.35 2428.48 550.788 2450.47 554.601 2494.07 563.308 2537.17 573.426 2579.64 584.897 2621.42 597.668 2662.4 611.685 2702.51 626.894 2741.65 643.242 2779.75 660.673 2816.71 679.136 2852.44 698.576 2886.86 718.94 2919.86 740.166 2935.83 751.103 2951.41 762.228 2966.59 773.545 2981.37 785.046 2995.73 796.725 3009.66 808.575 3023.16 820.591 3036.21 832.764 3048.8 845.09 3060.92 857.561 3072.56 870.171 3083.71 882.913 3094.35 895.781 3104.48 908.768 3114.09 921.868 3123.16 935.075 3131.68 948.382 3139.64 961.782 3147.03 975.27 3153.84 988.839 3160.05 1002.48 3165.66 1016.19 3170.66 1029.96 3175.02 1043.79 3178.75 1057.66 3181.82 1071.57 3184.23 1085.51 3185.98 1099.53 3186.23 1104.41 3179.36 1104.76 3179.12 1100 3179.14 1100.25 3177.42 1086.44 3177.45 1086.61 3175.06 1072.82 3175.09 1072.98 3172.05 1059.22 3172.09 1059.37 3168.4 1045.64 3168.44 1045.79 3164.12 1032.1 3164.17 1032.24 3159.22 1018.6 3159.27 1018.73 3153.71 1005.15 3153.77 1005.27 3147.61 991.748 3147.66 991.864 3140.91 978.409 3140.97 978.519 3133.64 965.139 3133.7 965.242 3125.8 951.943 3125.86 952.041 3117.4 938.829 3117.46 938.921 3108.45 925.803 3108.51 925.89 3098.97 912.874 3099.03 912.956 3088.96 900.048 3089.03 900.125 3078.44 887.331 3078.5 887.404 3067.42 874.732 3067.48 874.8 3055.9 862.256 3055.96 862.321 3043.9 849.912 3043.96 849.973 3031.43 837.706 3031.49 837.763 3018.5 825.645 3018.56 825.699 3005.12 813.736 3005.18 813.787 2991.3 801.987 2991.36 802.035 2977.06 790.403 2977.11 790.449 2962.39 778.992 2962.45 779.035 2947.33 767.761 2947.38 767.802 2931.86 756.717 2931.92 756.756 2916.02 745.867 2916.1 745.922 2883.19 724.758 2883.3 724.825 2848.99 704.525 2849.1 704.586 2813.47 685.204 2813.58 685.26 2776.73 666.85 2776.83 666.901 2738.85 649.517 2738.95 649.563 2699.91 633.26 2700.02 633.303 2660.02 618.134 2660.12 618.172 2619.25 604.192 2619.35 604.226 2577.69 591.488 2577.8 591.519 2535.43 580.078 2535.54 580.105 2492.56 570.014 2492.67 570.038 2449.17 561.351 2449.25 561.367 2427.33 557.567 2427.39 557.577 2405.37 554.148 2405.43 554.157 2383.32 551.106 2383.38 551.114 2361.19 548.448 2361.26 548.455 2339 546.18 2339.07 546.186 2316.76 544.31 2316.82 544.315 2294.47 542.844 2294.54 542.848 2272.16 541.789 2272.22 541.791 2249.82 541.151 2249.88 541.152 2227.47 540.937ZM3196.3 1099.32 3183.94 1127.47 3168.83 1100.69Z" fill="#F29065"/><path d="M1257.06 1127.39 1257.26 1118.57 1257.86 1109.69 1258.85 1100.81 1260.24 1091.92 1264.11 1074.3 1269.46 1056.78 1276.2 1039.41 1284.31 1022.23 1293.71 1005.28 1304.36 988.588 1316.2 972.184 1329.19 956.103 1343.28 940.377 1358.41 925.039 1374.53 910.121 1391.6 895.656 1409.57 881.678 1428.38 868.219 1447.98 855.313 1468.33 842.993 1489.38 831.294 1511.08 820.248 1533.37 809.89 1556.21 800.252 1579.55 791.37 1603.34 783.278 1627.53 776.009 1652.08 769.597 1676.92 764.078 1702.02 759.484 1727.32 755.851 1752.78 753.213 1780.83 751.625 1781.22 758.489 1753.25 760.072 1753.41 760.059 1728.09 762.683 1728.23 762.666 1703.06 766.28 1703.19 766.259 1678.22 770.829 1678.35 770.803 1653.63 776.295 1653.75 776.265 1629.33 782.645 1629.45 782.611 1605.38 789.844 1605.5 789.807 1581.82 797.859 1581.94 797.818 1558.71 806.656 1558.83 806.61 1536.1 816.2 1536.21 816.15 1514.03 826.457 1514.14 826.403 1492.56 837.392 1492.67 837.333 1471.73 848.972 1471.84 848.908 1451.6 861.161 1451.71 861.091 1432.21 873.924 1432.32 873.849 1413.62 887.228 1413.73 887.146 1395.88 901.038 1395.99 900.947 1379.04 915.317 1379.15 915.218 1363.14 930.032 1363.25 929.923 1348.23 945.146 1348.34 945.026 1334.37 960.625 1334.49 960.492 1321.61 976.432 1321.72 976.285 1309.99 992.533 1310.1 992.369 1299.56 1008.89 1299.67 1008.71 1290.37 1025.47 1290.48 1025.27 1282.47 1042.23 1282.57 1042.01 1275.91 1059.15 1275.99 1058.9 1270.73 1076.18 1270.8 1075.91 1266.97 1093.29 1267.01 1093.08 1265.66 1101.79 1265.68 1101.65 1264.7 1110.37 1264.72 1110.22 1264.13 1118.96 1264.13 1118.81 1263.94 1127.55ZM1776.11 741.422 1803.93 754.5 1776.78 768.914Z" fill="#F9B500"/><path d="M2227.55 751.063 2267.94 751.605 2308.29 753.21 2348.49 755.842 2388.45 759.469 2428.09 764.054 2467.33 769.565 2506.11 775.966 2544.33 783.224 2581.92 791.305 2618.8 800.174 2654.89 809.798 2690.11 820.142 2724.4 831.174 2757.66 842.858 2789.82 855.161 2820.8 868.05 2850.52 881.492 2878.91 895.452 2905.87 909.891 2918.82 917.295 2931.37 924.8 2943.53 932.41 2955.29 940.122 2966.63 947.932 2977.55 955.835 2988.05 963.827 2998.1 971.906 3007.7 980.068 3016.84 988.307 3025.51 996.622 3033.7 1005.01 3041.4 1013.46 3048.59 1021.98 3055.28 1030.56 3061.44 1039.2 3067.08 1047.9 3072.17 1056.64 3076.7 1065.43 3080.67 1074.27 3084.06 1083.15 3086.89 1092.14 3089.31 1104.52 3082.56 1105.84 3080.18 1093.65 3080.27 1094.02 3077.53 1085.31 3077.6 1085.5 3074.28 1076.82 3074.36 1077 3070.47 1068.34 3070.55 1068.5 3066.09 1059.87 3066.18 1060.02 3061.18 1051.43 3061.26 1051.57 3055.72 1043.01 3055.8 1043.13 3049.72 1034.62 3049.81 1034.73 3043.21 1026.26 3043.3 1026.37 3036.18 1017.95 3036.27 1018.05 3028.65 1009.68 3028.74 1009.77 3020.63 1001.47 3020.71 1001.55 3012.12 993.306 3012.2 993.378 3003.13 985.207 3003.21 985.273 2993.68 977.175 2993.75 977.235 2983.77 969.214 2983.84 969.269 2973.42 961.329 2973.49 961.38 2962.63 953.525 2962.7 953.572 2951.42 945.807 2951.48 945.85 2939.79 938.179 2939.85 938.218 2927.75 930.646 2927.81 930.682 2915.32 923.212 2915.38 923.246 2902.5 915.883 2902.58 915.929 2875.72 901.541 2875.82 901.595 2847.54 887.685 2847.64 887.733 2818.01 874.336 2818.11 874.378 2787.22 861.528 2787.31 861.564 2755.25 849.296 2755.33 849.328 2722.16 837.675 2722.25 837.704 2688.05 826.7 2688.14 826.726 2652.99 816.407 2653.08 816.43 2617.07 806.828 2617.15 806.849 2580.35 797.999 2580.43 798.018 2542.92 789.954 2543 789.971 2504.86 782.728 2504.95 782.742 2466.26 776.355 2466.34 776.367 2427.17 770.868 2427.26 770.879 2387.7 766.303 2387.78 766.312 2347.91 762.693 2348 762.7 2307.89 760.073 2307.98 760.077 2267.71 758.476 2267.8 758.479 2227.45 757.937ZM3099.09 1099.09 3088.49 1127.95 3071.76 1102.15Z" fill="#F29065"/><path d="M1352.08 1126.65 1352.75 1119.03 1354.81 1111.18 1358.16 1103.44 1362.71 1095.84 1368.42 1088.36 1375.22 1081.03 1383.07 1073.82 1391.93 1066.75 1401.76 1059.83 1412.52 1053.05 1424.17 1046.44 1436.66 1039.99 1449.97 1033.72 1464.05 1027.65 1478.86 1021.79 1494.36 1016.15 1510.51 1010.73 1527.28 1005.57 1544.61 1000.67 1562.48 996.039 1580.83 991.699 1599.64 987.662 1618.85 983.942 1638.45 980.549 1678.53 974.825 1698.99 972.512 1719.64 970.588 1740.46 969.067 1761.4 967.963 1780.47 967.427 1780.67 974.299 1761.64 974.834 1761.72 974.83 1740.85 975.931 1740.92 975.927 1720.18 977.443 1720.24 977.437 1699.66 979.354 1699.73 979.347 1679.35 981.651 1679.45 981.638 1639.48 987.348 1639.58 987.332 1620.06 990.71 1620.13 990.698 1600.98 994.405 1601.05 994.391 1582.31 998.414 1582.38 998.398 1564.1 1002.72 1564.17 1002.7 1546.37 1007.31 1546.45 1007.29 1529.19 1012.18 1529.26 1012.15 1512.58 1017.29 1512.66 1017.27 1496.59 1022.65 1496.67 1022.62 1481.26 1028.23 1481.35 1028.2 1466.63 1034.03 1466.72 1033.99 1452.75 1040.01 1452.85 1039.97 1439.65 1046.18 1439.76 1046.13 1427.38 1052.51 1427.5 1052.45 1415.98 1058.99 1416.12 1058.91 1405.5 1065.6 1405.65 1065.5 1395.98 1072.31 1396.14 1072.19 1387.45 1079.12 1387.63 1078.97 1379.97 1086 1380.17 1085.8 1373.57 1092.92 1373.78 1092.67 1368.29 1099.86 1368.51 1099.54 1364.17 1106.78 1364.38 1106.38 1361.23 1113.67 1361.39 1113.18 1359.47 1120.49 1359.57 1119.92 1358.92 1127.25ZM1775.77 957.187 1803.48 970.5 1776.21 984.683Z" fill="#F29065"/><path d="M1448.07 1126.71 1448.6 1119.15 1450.2 1111.4 1452.81 1103.72 1456.38 1096.15 1460.87 1088.68 1466.23 1081.33 1472.43 1074.11 1479.42 1067.01 1487.19 1060.06 1495.68 1053.26 1504.88 1046.63 1514.74 1040.16 1525.25 1033.87 1536.36 1027.79 1548.04 1021.91 1560.27 1016.25 1573.01 1010.82 1586.24 1005.65 1599.91 1000.74 1614 996.097 1628.47 991.748 1643.32 987.697 1673.89 980.578 1705.5 974.841 1721.64 972.522 1737.92 970.595 1754.33 969.071 1770.86 967.964 1781.01 967.625 1781.24 974.496 1771.14 974.833 1771.26 974.827 1754.84 975.928 1754.93 975.921 1738.6 977.437 1738.69 977.428 1722.49 979.344 1722.57 979.333 1706.54 981.637 1706.66 981.617 1675.2 987.327 1675.37 987.293 1644.94 994.378 1645.07 994.346 1630.32 998.369 1630.41 998.345 1616.02 1002.67 1616.11 1002.64 1602.1 1007.25 1602.19 1007.22 1588.61 1012.1 1588.7 1012.07 1575.57 1017.21 1575.66 1017.17 1563.01 1022.55 1563.11 1022.51 1550.98 1028.12 1551.08 1028.07 1539.5 1033.9 1539.61 1033.84 1528.61 1039.87 1528.72 1039.81 1518.33 1046.02 1518.45 1045.95 1508.71 1052.33 1508.84 1052.25 1499.77 1058.79 1499.91 1058.69 1491.56 1065.37 1491.7 1065.25 1484.09 1072.06 1484.24 1071.92 1477.41 1078.85 1477.57 1078.67 1471.54 1085.7 1471.71 1085.49 1466.52 1092.61 1466.68 1092.35 1462.36 1099.54 1462.53 1099.23 1459.11 1106.48 1459.26 1106.12 1456.78 1113.41 1456.89 1113 1455.38 1120.31 1455.44 1119.86 1454.93 1127.19ZM1776.21 957.427 1804.04 970.5 1776.88 984.919Z" fill="#F29065"/><path d="M2227.52 967.062 2258.95 967.29 2290.34 967.964 2321.6 969.07 2352.68 970.592 2383.51 972.518 2414.04 974.832 2444.19 977.521 2473.92 980.569 2503.16 983.963 2531.85 987.688 2559.92 991.729 2587.32 996.074 2613.99 1000.71 2639.86 1005.61 2664.87 1010.78 2688.97 1016.19 2712.09 1021.84 2734.18 1027.7 2755.16 1033.77 2774.99 1040.03 2793.6 1046.47 2810.94 1053.07 2826.94 1059.83 2841.53 1066.73 2848.31 1070.24 2854.71 1073.78 2860.73 1077.35 2866.37 1080.95 2871.62 1084.59 2876.47 1088.26 2880.92 1091.97 2884.96 1095.71 2888.86 1099.8 2891.38 1104.99 2885.2 1107.99 2882.92 1103.29 2883.52 1104.16 2880.06 1100.54 2880.2 1100.68 2876.31 1097.07 2876.45 1097.19 2872.13 1093.59 2872.26 1093.69 2867.53 1090.11 2867.64 1090.2 2862.51 1086.64 2862.61 1086.71 2857.08 1083.17 2857.18 1083.23 2851.25 1079.72 2851.34 1079.77 2845.03 1076.28 2845.11 1076.32 2838.43 1072.86 2838.54 1072.92 2824.07 1066.08 2824.2 1066.14 2808.32 1059.43 2808.44 1059.48 2791.21 1052.91 2791.31 1052.95 2772.79 1046.54 2772.88 1046.57 2753.13 1040.34 2753.21 1040.36 2732.3 1034.32 2732.38 1034.34 2710.36 1028.49 2710.43 1028.51 2687.37 1022.88 2687.44 1022.9 2663.4 1017.5 2663.45 1017.51 2638.5 1012.35 2638.55 1012.36 2612.73 1007.47 2612.79 1007.48 2586.17 1002.85 2586.22 1002.86 2558.87 998.523 2558.92 998.531 2530.89 994.496 2530.94 994.502 2502.3 990.784 2502.34 990.789 2473.15 987.401 2473.2 987.406 2443.52 984.362 2443.56 984.367 2413.45 981.682 2413.5 981.686 2383.01 979.375 2383.06 979.378 2352.27 977.456 2352.32 977.458 2321.29 975.938 2321.33 975.94 2290.12 974.836 2290.17 974.837 2258.83 974.164 2258.88 974.165 2227.48 973.937ZM2899 1096.72 2897.59 1127.43 2873.86 1107.88Z" fill="#F9B500"/><path d="M2227.52 967.062 2263.42 967.29 2299.26 967.964 2334.97 969.069 2370.46 970.591 2405.67 972.516 2440.53 974.83 2474.97 977.517 2508.92 980.564 2542.31 983.957 2575.07 987.68 2607.14 991.721 2638.43 996.063 2668.88 1000.69 2698.42 1005.6 2726.98 1010.76 2754.5 1016.17 2780.9 1021.82 2806.11 1027.68 2830.07 1033.74 2852.7 1039.99 2873.93 1046.42 2884.02 1049.7 2893.72 1053.02 2903.04 1056.38 2911.97 1059.77 2920.51 1063.2 2928.64 1066.66 2936.35 1070.16 2943.64 1073.69 2950.5 1077.25 2956.92 1080.84 2962.9 1084.47 2968.43 1088.13 2973.49 1091.82 2978.09 1095.56 2982.51 1099.6 2985.79 1105.18 2979.86 1108.66 2976.84 1103.53 2977.48 1104.32 2973.52 1100.7 2973.68 1100.83 2969.23 1097.22 2969.37 1097.33 2964.44 1093.73 2964.57 1093.82 2959.16 1090.24 2959.28 1090.31 2953.41 1086.75 2953.52 1086.81 2947.19 1083.27 2947.29 1083.33 2940.52 1079.81 2940.6 1079.85 2933.39 1076.37 2933.47 1076.4 2925.83 1072.94 2925.9 1072.97 2917.85 1069.54 2917.91 1069.57 2909.44 1066.16 2909.5 1066.19 2900.63 1062.82 2900.69 1062.84 2891.42 1059.5 2891.47 1059.52 2881.82 1056.22 2881.87 1056.23 2871.84 1052.97 2871.9 1052.99 2850.75 1046.59 2850.83 1046.61 2828.27 1040.38 2828.34 1040.4 2804.46 1034.35 2804.52 1034.36 2779.37 1028.52 2779.43 1028.53 2753.09 1022.9 2753.15 1022.91 2725.68 1017.51 2725.73 1017.52 2697.22 1012.37 2697.27 1012.38 2667.77 1007.48 2667.82 1007.49 2637.41 1002.86 2637.46 1002.87 2606.21 998.533 2606.25 998.539 2574.24 994.504 2574.28 994.509 2541.56 990.79 2541.6 990.795 2508.25 987.406 2508.29 987.41 2474.38 984.367 2474.42 984.37 2440.02 981.685 2440.06 981.688 2405.24 979.378 2405.28 979.38 2370.1 977.457 2370.14 977.459 2334.69 975.938 2334.73 975.94 2299.07 974.836 2299.11 974.837 2263.31 974.164 2263.35 974.165 2227.48 973.937ZM2993.09 1096.69 2993.04 1127.43 2968.47 1108.95Z" fill="#F9B500"/></g></svg>