<svg width="2407" height="2080" xmlns="http://www.w3.org/2000/svg" xmlns:xlink="http://www.w3.org/1999/xlink" xml:space="preserve" overflow="hidden"><defs><linearGradient x1="1444" y1="1318" x2="1444" y2="1845" gradientUnits="userSpaceOnUse" spreadMethod="reflect" id="fill0"><stop offset="0" stop-color="#9B9B9B"/><stop offset="0.5" stop-color="#8E8E8E"/><stop offset="1" stop-color="#797979"/></linearGradient></defs><g transform="translate(-1058 -331)"><path d="M0 188.336C-3.30219e-14 84.321 84.3211-3.30219e-14 188.336-6.60438e-14L941.664 0C1045.68-6.60438e-14 1130 84.321 1130 188.336L1130 1886.66C1130 1990.68 1045.68 2075 941.664 2075L188.336 2075C84.3211 2075 0 1990.68 0 1886.66Z" stroke="#548235" stroke-width="4.58333" stroke-miterlimit="8" fill="#C5E0B4" fill-rule="evenodd" transform="matrix(-1 0 0 1 3462.5 333.5)"/><text font-family="Calibri,Calibri_MSFontService,sans-serif" font-weight="700" font-size="83" transform="matrix(1 0 0 1 2420.54 482)">i.MX RT1180</text><rect x="0" y="0" width="810" height="1531" stroke="#507E32" stroke-width="4.58333" stroke-miterlimit="8" fill="#548235" transform="matrix(-1 0 0 1 3204.5 728.5)"/><text fill="#FFFFFF" font-family="Calibri,Calibri_MSFontService,sans-serif" font-weight="400" font-size="73" transform="matrix(1 0 0 1 2772.1 819)">Network</text><text fill="#FFFFFF" font-family="Calibri,Calibri_MSFontService,sans-serif" font-weight="400" font-size="73" transform="matrix(1 0 0 1 2772.1 907)">(</text><text fill="#FFFFFF" font-family="Calibri,Calibri_MSFontService,sans-serif" font-weight="400" font-size="64" transform="matrix(1 0 0 1 2794.44 907)">Cortex</text><text fill="#FFFFFF" font-family="Calibri,Calibri_MSFontService,sans-serif" font-weight="400" font-size="64" transform="matrix(1 0 0 1 2965.24 907)">-</text><text fill="#FFFFFF" font-family="Calibri,Calibri_MSFontService,sans-serif" font-weight="400" font-size="64" transform="matrix(1 0 0 1 2984.72 907)">M33</text><text fill="#FFFFFF" font-family="Calibri,Calibri_MSFontService,sans-serif" font-weight="400" font-size="73" transform="matrix(1 0 0 1 3105.03 907)">)</text><rect x="0" y="0" width="360" height="89" stroke="#2F528F" stroke-width="4.58333" stroke-miterlimit="8" fill="#D0CECE" transform="matrix(-1 0 0 1 2752.5 578.5)"/><text font-family="Calibri,Calibri_MSFontService,sans-serif" font-weight="700" font-size="55" transform="matrix(1 0 0 1 2444.09 641)">DEBUG USB</text><rect x="0" y="0" width="153" height="121" stroke="#2F528F" stroke-width="4.58333" stroke-miterlimit="8" fill="#FFFFFF" transform="matrix(-1 0 0 1 2609.5 820.5)"/><text fill="#FFFFFF" font-family="Calibri,Calibri_MSFontService,sans-serif" font-weight="400" font-size="50" transform="matrix(1 0 0 1 2459.99 805)">ENET0</text><rect x="0" y="0" width="153" height="121" stroke="#2F528F" stroke-width="4.58333" stroke-miterlimit="8" fill="#FFFFFF" transform="matrix(-1 0 0 1 2606.5 1137.5)"/><text fill="#FFFFFF" font-family="Calibri,Calibri_MSFontService,sans-serif" font-weight="400" font-size="50" transform="matrix(1 0 0 1 2459.99 1104)">ENET1</text><rect x="0" y="0" width="153" height="122" stroke="#2F528F" stroke-width="4.58333" stroke-miterlimit="8" fill="#FFFFFF" transform="matrix(-1 0 0 1 2606.5 1458.5)"/><text fill="#FFFFFF" font-family="Calibri,Calibri_MSFontService,sans-serif" font-weight="400" font-size="50" transform="matrix(1 0 0 1 2459.99 1421)">ENET2</text><rect x="1059" y="1318" width="770" height="527" stroke="#000000" stroke-width="2.29167" stroke-miterlimit="8" fill="url(#fill0)"/><text fill="#FFFFFF" font-family="Calibri,Calibri_MSFontService,sans-serif" font-weight="700" font-size="105" transform="matrix(1 0 0 1 1149.15 1567)">PC</text><text font-family="Calibri,Calibri_MSFontService,sans-serif" font-weight="400" font-size="55" transform="matrix(1 0 0 1 1916.81 1477)">USB</text><rect x="1524.5" y="1485.5" width="280" height="89" stroke="#2F528F" stroke-width="4.58333" stroke-miterlimit="8" fill="#D0CECE"/><text font-family="Calibri,Calibri_MSFontService,sans-serif" font-weight="700" font-size="50" transform="matrix(1 0 0 1 1621.72 1546)">USB</text><rect x="1524.5" y="1679.5" width="280" height="89" stroke="#2F528F" stroke-width="4.58333" stroke-miterlimit="8" fill="#D0CECE"/><text font-family="Calibri,Calibri_MSFontService,sans-serif" font-weight="700" font-size="50" transform="matrix(1 0 0 1 1573.03 1740)">Ethernet</text><path d="M2448.33 2149.55 2126.16 2149.55 2126.16 1723 1804 1723" stroke="#00B0F0" stroke-width="13.75" stroke-miterlimit="8" fill="none" fill-rule="evenodd"/><text fill="#00B0F0" font-family="Calibri,Calibri_MSFontService,sans-serif" font-weight="700" font-size="55" transform="matrix(1 0 0 1 1862.73 1822)">Ethernet</text><path d="M0 0 294.212 0 294.212 907.137 588.423 907.137" stroke="#000000" stroke-width="13.75" stroke-miterlimit="8" fill="none" fill-rule="evenodd" transform="matrix(1 0 0 -1 1804 1530.14)"/><rect x="0" y="0" width="153" height="121" stroke="#2F528F" stroke-width="4.58333" stroke-miterlimit="8" fill="#FFFFFF" transform="matrix(-1 0 0 1 2601.5 1774.5)"/><text fill="#FFFFFF" font-family="Calibri,Calibri_MSFontService,sans-serif" font-weight="400" font-size="50" transform="matrix(1 0 0 1 2459.99 1742)">ENET3</text><rect x="0" y="0" width="153" height="121" stroke="#2F528F" stroke-width="4.58333" stroke-miterlimit="8" fill="#FFFFFF" transform="matrix(-1 0 0 1 2601.5 2089.5)"/><text fill="#FFFFFF" font-family="Calibri,Calibri_MSFontService,sans-serif" font-weight="400" font-size="50" transform="matrix(1 0 0 1 2459.99 2057)">ENET4</text></g></svg>