<svg width="2530" height="996" xmlns="http://www.w3.org/2000/svg" xmlns:xlink="http://www.w3.org/1999/xlink" xml:space="preserve" overflow="hidden"><g transform="translate(-860 -904)"><text fill="#ED7D31" font-family="Calibri,Calibri_MSFontService,sans-serif" font-weight="400" font-size="55" transform="matrix(1 0 0 1 2982.03 1851)">Task scheduling</text><path d="M1206.5 1199.06 3210.36 1199.06 3210.36 1205.94 1206.5 1205.94ZM3205.78 1188.75 3233.28 1202.5 3205.78 1216.25Z" fill="#5B9BD5"/><path d="M1206.5 1432.06 3210.36 1432.06 3210.36 1438.94 1206.5 1438.94ZM3205.78 1421.75 3233.28 1435.5 3205.78 1449.25Z" fill="#70AD47"/><path d="M1206.5 1652.06 3210.36 1652.06 3210.36 1658.94 1206.5 1658.94ZM3205.78 1641.75 3233.28 1655.5 3205.78 1669.25Z" fill="#70AD47"/><path d="M1209.94 1044.5 1209.94 1179.34 1203.06 1179.34 1203.06 1044.5ZM1220.25 1174.76 1206.5 1202.26 1192.75 1174.76Z" fill="#ED7D31"/><path d="M1547.94 1043.5 1547.94 1178.34 1541.06 1178.34 1541.06 1043.5ZM1558.25 1173.76 1544.5 1201.26 1530.75 1173.76Z" fill="#ED7D31"/><path d="M1890.94 1044.5 1890.94 1179.34 1884.06 1179.34 1884.06 1044.5ZM1901.25 1174.76 1887.5 1202.26 1873.75 1174.76Z" fill="#ED7D31"/><path d="M2229.94 1043.5 2229.94 1178.34 2223.06 1178.34 2223.06 1043.5ZM2240.25 1173.76 2226.5 1201.26 2212.75 1173.76Z" fill="#ED7D31"/><path d="M2548.94 1043.5 2548.94 1178.34 2542.06 1178.34 2542.06 1043.5ZM2559.25 1173.76 2545.5 1201.26 2531.75 1173.76Z" fill="#ED7D31"/><path d="M2868.94 1043.5 2868.94 1178.34 2862.06 1178.34 2862.06 1043.5ZM2879.25 1173.76 2865.5 1201.26 2851.75 1173.76Z" fill="#ED7D31"/><path d="M1389.94 1280.5 1389.94 1415.34 1383.06 1415.34 1383.06 1280.5ZM1400.25 1410.76 1386.5 1438.26 1372.75 1410.76Z" fill="#ED7D31"/><path d="M1722.94 1279.5 1722.94 1414.34 1716.06 1414.34 1716.06 1279.5ZM1733.25 1409.76 1719.5 1437.26 1705.75 1409.76Z" fill="#ED7D31"/><path d="M2070.94 1280.5 2070.94 1415.34 2064.06 1415.34 2064.06 1280.5ZM2081.25 1410.76 2067.5 1438.26 2053.75 1410.76Z" fill="#ED7D31"/><path d="M2391.94 1279.5 2391.94 1414.34 2385.06 1414.34 2385.06 1279.5ZM2402.25 1409.76 2388.5 1437.26 2374.75 1409.76Z" fill="#ED7D31"/><path d="M2724.94 1278.5 2724.94 1413.34 2718.06 1413.34 2718.06 1278.5ZM2735.25 1408.76 2721.5 1436.26 2707.75 1408.76Z" fill="#ED7D31"/><path d="M3043.94 1279.5 3043.94 1414.34 3037.06 1414.34 3037.06 1279.5ZM3054.25 1409.76 3040.5 1437.26 3026.75 1409.76Z" fill="#ED7D31"/><path d="M1392.94 1499.5 1392.94 1634.34 1386.06 1634.34 1386.06 1499.5ZM1403.25 1629.76 1389.5 1657.26 1375.75 1629.76Z" fill="#ED7D31"/><path d="M1724.94 1498.5 1724.94 1633.34 1718.06 1633.34 1718.06 1498.5ZM1735.25 1628.76 1721.5 1656.26 1707.75 1628.76Z" fill="#ED7D31"/><path d="M2073.94 1499.5 2073.94 1634.34 2067.06 1634.34 2067.06 1499.5ZM2084.25 1629.76 2070.5 1657.26 2056.75 1629.76Z" fill="#ED7D31"/><path d="M2394.94 1498.5 2394.94 1633.34 2388.06 1633.34 2388.06 1498.5ZM2405.25 1628.76 2391.5 1656.26 2377.75 1628.76Z" fill="#ED7D31"/><path d="M2726.94 1497.5 2726.94 1632.34 2720.06 1632.34 2720.06 1497.5ZM2737.25 1627.76 2723.5 1655.26 2709.75 1627.76Z" fill="#ED7D31"/><path d="M3045.94 1498.5 3045.94 1633.34 3039.06 1633.34 3039.06 1498.5ZM3056.25 1628.76 3042.5 1656.26 3028.75 1628.76Z" fill="#ED7D31"/><path d="M1220.92 993.854 1520.43 993.855 1520.43 996.146 1220.92 996.146ZM1225.5 1008.75 1198 995 1225.5 981.25ZM1515.85 981.25 1543.35 995.001 1515.85 1008.75Z"/><text font-family="Calibri,Calibri_MSFontService,sans-serif" font-weight="400" font-size="55" transform="matrix(1 0 0 1 1297.36 973)">100 us</text><path d="M1411.92 1695.85 1694.55 1695.85 1694.55 1698.15 1411.92 1698.15ZM1416.5 1710.75 1389 1697 1416.5 1683.25ZM1689.97 1683.25 1717.47 1697 1689.97 1710.75Z"/><text font-family="Calibri,Calibri_MSFontService,sans-serif" font-weight="400" font-size="55" transform="matrix(1 0 0 1 1479.59 1762)">100 us</text><path d="M2741.5 1825.06 2937.26 1825.06 2937.26 1831.94 2741.5 1831.94ZM2932.68 1814.75 2960.18 1828.5 2932.68 1842.25Z" fill="#ED7D31"/><text font-family="Calibri,Calibri_MSFontService,sans-serif" font-weight="400" font-size="55" transform="matrix(1 0 0 1 893.411 1204)">Controller</text><text font-family="Calibri,Calibri_MSFontService,sans-serif" font-weight="400" font-size="55" transform="matrix(1 0 0 1 928.917 1652)">IO device</text><text font-family="Calibri,Calibri_MSFontService,sans-serif" font-weight="400" font-size="55" transform="matrix(1 0 0 1 3256.64 1219)">t</text><text font-family="Calibri,Calibri_MSFontService,sans-serif" font-weight="400" font-size="55" transform="matrix(1 0 0 1 3258.42 1457)">t</text><text font-family="Calibri,Calibri_MSFontService,sans-serif" font-weight="400" font-size="55" transform="matrix(1 0 0 1 3258.42 1673)">t</text></g></svg>